<svg xmlns="http://www.w3.org/2000/svg" width="782" height="248.583" viewBox="0 0 782 248.583">
  <g id="we_belive_alush_life_-ai" data-name="we belive alush life -ai" transform="translate(0.007 41.046)">
    <path id="패스_414" data-name="패스 414" d="M762.228,431.709A17.639,17.639,0,0,0,752.21,418.1a114.644,114.644,0,0,0-21.856-9.011c-7.717-2.972-15.578-5.608-23.1-9.155-6.662-3.211-7.285-6.806-2.253-11.983a66.3,66.3,0,0,1,22.432-13.708c1.15-.479,2.588-.623,3.307.575,3.068,5.32,8.2,4.793,13.133,4.793s6.806-1.438,8.436-7.285c1.2-4.17-1.342-6.231-4.362-7.956a22.239,22.239,0,0,0-11.024-3.259H734A62.3,62.3,0,0,0,715.64,365.9a94.371,94.371,0,0,0-33.935,21.473,2.639,2.639,0,0,1-.239-1.007c1.2-4.793,2.3-9.346,3.69-13.948a9.874,9.874,0,0,0-4.793-13.612,8.915,8.915,0,0,0-13.852,2.109c-1.822,2.3-3.5,4.793-5.225,7.094-17.3,23.582-33.024,48.266-49.464,72.471-.575.863-.863,2.061-2.349,1.678a51.8,51.8,0,0,1,2.253-10.065c3.019-10.4,6.135-20.754,9.586-30.963s7.285-18.885,11.12-28.231c2.3-5.608-.432-9.059-6.471-8.34-2.876.383-5.7,1.486-8.627,1.869a7.141,7.141,0,0,0-5.9,4.793c-2.013,4.793-3.691,9.586-5.464,14.667-5.129,14.379-9.586,28.758-13.756,43.473-.671,2.157-1.582,3.02-3.643,2.4a11.167,11.167,0,0,0-8.436,1.486q-19.053,9.706-38.344,19.172c-.815.431-1.677,1.15-2.541.383s0-1.486.24-2.2c9.2-21.76,17.447-43.9,25.164-66.24a111.84,111.84,0,0,0,5.177-17.686c.863-5.368-1.63-8-7-7-1.725.336-3.355.911-5.032,1.39h0a50.592,50.592,0,0,0-6.615,0c-1.725,0-3.786.431-3.978,2.924h0l-1.486,3.355h0c-2.445,2.732-4.793,5.464-2.013,9.586a4.267,4.267,0,0,1,0,3.882c-1.725,5.225-3.4,10.5-5.129,15.769-.911,2.492-2.013,4.793-2.828,7.429a113.948,113.948,0,0,0-6.087,18.309h0a12.927,12.927,0,0,0-.767,1.39c-5.464,14.379-10.545,28.519-16.536,42.514-1.007,2.349.911,6.423,3.211,6.423,7.669,0,15.481,1.534,22.815-2.636,11.887-6.758,23.486-13.9,35.085-21.089a105.988,105.988,0,0,1,15.913-9.3c-.624,4.362-.959,8.2-1.726,11.983a7.861,7.861,0,0,0,4.17,9.059,40.5,40.5,0,0,0,13.613,4.793,7.765,7.765,0,0,0,10.209-3.883c10.353-16.344,20.275-32.976,31.346-48.889a76.705,76.705,0,0,1,10.5-13.66c-5.752,18.357-12.174,35.468-18.549,52.723a74.673,74.673,0,0,0-6.087,19.172,4.793,4.793,0,0,0,6.854,5.32,15.524,15.524,0,0,1,5.464-1.007,8.723,8.723,0,0,0,9.25-7.142c1.534-5.464,1.774-5.368,7.238-3.738a5.33,5.33,0,0,0,1.2.24,140.4,140.4,0,0,0,29.765-.815,205.262,205.262,0,0,0,29.86-6.231,110.664,110.664,0,0,0,35.421-16.44A9.922,9.922,0,0,0,762.228,431.709Zm-46.54,14.139a281.9,281.9,0,0,1-30.867,7,47.621,47.621,0,0,1-6.423.432c-1.677,0-2.924-.336-2.972-2.349,0-3.643-2.253-3.211-4.793-2.349a65.9,65.9,0,0,0-11.839,6.614l18.645-56.606c3.02,10.4,10.689,14.379,18.645,17.686,11.886,5.129,24.492,8.436,36.187,14.092,5.991,2.876,6.087,5.033.384,8.58A70.41,70.41,0,0,1,715.688,445.848Z" transform="translate(-392.754 -269.223)" fill="#fff"/>
    <path id="패스_415" data-name="패스 415" d="M718.339,361.921a3.5,3.5,0,0,0-2.636-5.7,49.412,49.412,0,0,0-15.242.719,7.238,7.238,0,0,0-5.129,4.505,644.961,644.961,0,0,0-26.409,69.595c-.719,2.109-1.63,3.163-3.643,2.445a10.449,10.449,0,0,0-8.436,1.39l-38.009,19.172c-.91.431-1.869,1.582-2.828.527s0-2.013.383-2.972c.959-2.349,2.061-4.793,2.972-7,4.793-11.935,9.586-23.965,14.092-35.756a6.71,6.71,0,0,0,1.917-3.451c3.163-9.059,6.183-18.166,9.346-27.224a38.029,38.029,0,0,0,2.636-11.7,4.793,4.793,0,0,0-5.32-5.512c-4.793,0-9.586,2.109-14.379,2.445-3.93.336-9.586,9.586-8.532,13.66,0,0,.479.239.719.335h0a3.834,3.834,0,0,1,1.247,4.793c-4.793,15.913-11.36,31.346-17.255,46.972-4.793,12.845-9.969,25.547-14.906,38.344-1.1,2.876.335,6.9,2.828,6.9,7.573,0,15.29,1.63,22.479-2.4,12.031-6.758,23.725-14,35.373-21.281a123.348,123.348,0,0,1,15.769-9.2c-1.39,5.225-2.588,9.586-3.738,13.9a21.469,21.469,0,0,0-2.541,9.586,5.944,5.944,0,0,0,6.566,7.094,14.381,14.381,0,0,0,6.615-1.2c6.758-1.055,7.717-2.013,9.107-8.532a68.231,68.231,0,0,1,2.205-8.148c5.032-15.625,9.586-31.395,15.242-46.78S709.376,376.012,718.339,361.921Zm-75.155,0Zm-1.2,0a5.266,5.266,0,0,0-1.2,0,3.556,3.556,0,0,1,1.2-.336Z" transform="translate(-102.743 -270.994)" fill="#fff"/>
    <path id="패스_416" data-name="패스 416" d="M662.667,399.465c-2.541,0-5.081-.479-7.621-.431s-3.547-.863-2.445-3.595c2.54-6.183,5.033-12.414,7.094-18.741a43.808,43.808,0,0,0,4.361-13.66c0-2.109-.623-3.93-2.924-4.122s-5.128-1.486-7.765-1.965a8.676,8.676,0,0,0-10.641,5.464c-5.128,12.414-10.3,24.876-14.379,37.625-.623,1.869-1.15,3.978-3.355,4.793-8.2,2.78-16.056,6.566-23.965,9.922a4.218,4.218,0,0,1,0-3.93c1.63-4.218,3.02-8.531,4.793-12.8,3.068-8.436,6.039-16.824,9.3-25.163,1.2-2.972,4.793-5.32,1.869-9.011s-6.471-2.109-9.97-1.486a3.165,3.165,0,0,0-1.2.239c-3.643,1.87-8.819,1.1-10.64,6.135-3.02,8.292-6.183,16.536-9.011,24.828-6.375,18.837-12.749,37.673-18.836,56.606a55.586,55.586,0,0,0-4.554,17.782c0,2.924,1.294,4.506,4.41,4.458H580.9a5.8,5.8,0,0,0,4.793-9.059,4.794,4.794,0,0,1-.814-4.506c1.725-5.464,3.259-11.024,5.224-16.392,1.055-2.876,1.39-6.135,4.506-8.2a195.382,195.382,0,0,1,20.131-11.6c1.677-.815,3.786-3.02,5.368-1.342s-.527,3.691-1.15,5.512c-4.793,12.654-9.2,25.307-13.708,37.961-1.342,3.834.623,5.9,4.793,5.177,2.78-.479,5.56-.767,8.34-1.342a12.174,12.174,0,0,0,10.784-8.1c5.416-16.009,11.551-31.826,17.255-47.93a5.464,5.464,0,0,1,5.08-4.218,83.508,83.508,0,0,1,11.5-1.917c2.157,0,3.116-1.2,3.116-3.355S665.16,399.561,662.667,399.465Z" transform="translate(-200.496 -268.469)" fill="#fff"/>
    <path id="패스_417" data-name="패스 417" d="M731.711,355.652a67.967,67.967,0,0,0-33.215,7.957c-6.663,3.068-12.942,7.333-21.137,4.553a10.641,10.641,0,0,0-12.222,5.656,108.177,108.177,0,0,0-7.333,13.756,96.792,96.792,0,0,0-8.915,20.131h0c-.623,1.582-1.2,3.211-1.917,4.793-3.307,7.573-4.793,16.392-13.085,20.754a2.731,2.731,0,0,0-.623.479c-1.677,1.965-1.438,3.93.863,4.793s2.445,2.349,1.869,4.314q-3.882,12.654-7.813,25.259c-.671,2.109,0,3.738,1.822,4.266a36.281,36.281,0,0,0,22.958.815,184.278,184.278,0,0,0,36.858-20.9c6.615-4.314,12.99-9.011,19.172-13.564,1.965-1.39,3.595-3.978.527-4.793a22.576,22.576,0,0,0-17.207.815c-12.222,6.9-24.349,13.9-36.475,20.9-.911.575-1.917,1.438-2.876.863s-.623-1.773-.288-2.636c3.02-8.675,5.991-17.4,9.154-26.026a7.767,7.767,0,0,1,3.547-3.69,314.89,314.89,0,0,1,30.244-15.434l16.1-7.238c1.1-.479,2.492-1.246,2.4-2.444s-1.917-1.1-2.972-1.438a29.669,29.669,0,0,0-20.8,1.438l-18.5,7.669a26.6,26.6,0,0,1,3.739-8.915c2.493-4.793,3.979-9.586,8.867-12.989a258.823,258.823,0,0,1,47.93-25.212c1.2-.479,3.451,0,2.924-2.348S733.1,355.748,731.711,355.652Z" transform="translate(46.609 -272.346)" fill="#fff"/>
    <path id="패스_418" data-name="패스 418" d="M697.426,411.938c.815-.431,1.63-.911,2.492-1.294,1.773-.815,4.026-1.39,3.355-4.074s-2.588-3.355-5.224-3.355a36.96,36.96,0,0,0-11.7,2.492c-10.976,3.547-21.76,7.525-32.641,11.264-1.15.383-2.588.911-3.451,0s.384-1.965.767-2.876c4.314-10.784,9.586-21.233,14.379-31.634a7.764,7.764,0,0,1,3.739-3.5,198.322,198.322,0,0,1,26.6-11.072c3.068-.959,6.518-3.883,8.627,1.39,0,.24.671.431,1.055.479a47.2,47.2,0,0,0,12.462-.479c2.78-.623,3.02-3.355,3.643-5.368s-1.39-2.732-3.068-3.547a32.447,32.447,0,0,0-13.9-3.355,78.366,78.366,0,0,0-22,4.409,14.044,14.044,0,0,1-12.894,0c-7-4.122-13.42-4.793-17.638,5.56a18.261,18.261,0,0,1-10.976,12.414,45.876,45.876,0,0,0-9.97,5.176c-4.362,2.684-4.17,5.7.432,8.292a8,8,0,0,0,3.259,1.486c3.307.288,2.684,2.157,1.87,4.122-1.774,4.314-3.787,8.532-5.416,12.893-3.739,10.113-6.9,20.514-19.172,23.965a2.972,2.972,0,0,0-.575,5.368,8.389,8.389,0,0,0,4.794,1.965c2.156,0,2.78.959,1.917,3.115-2.2,5.416-3.307,11.216-5.752,16.584a4.793,4.793,0,0,0,4.793,6.806,54.5,54.5,0,0,0,14-3.259,3.068,3.068,0,0,0,2.109-2.253c1.822-7.956,4.793-15.529,7.286-23.294a8.772,8.772,0,0,1,4.793-6.087l26.793-11.6a188.638,188.638,0,0,0,25.116-10.449Z" transform="translate(-21.245 -266.898)" fill="#fff"/>
    <path id="패스_419" data-name="패스 419" d="M558.213,408.74c3.333,3.721,8.6,1.24,13.1.93a10.942,10.942,0,0,0,2.48-.7,91.941,91.941,0,0,0,38.764-17.831,3.333,3.333,0,0,1,2.946-.465c1.086.543.543,1.861,0,2.946-1.163,3.721-2.093,7.753-3.334,11.164s0,5.349,3.721,5.582a28.6,28.6,0,0,0,18.141-3.489c7.132-4.807,14.653-9.148,21.63-14.187,1.938-1.318,6.667-1.938,4.729-5.582s-5.659-2.171-8.76-.93a36.86,36.86,0,0,0-4.575,2.4l-15.505,8.683c-1.163.7-2.4,1.4-3.566.543s0-2.4,0-3.566a22.56,22.56,0,0,1,14.11-18.452,95.283,95.283,0,0,0,21.088-10.777,21.708,21.708,0,0,0-17.987,1.318c-1.318.62-3.333,2.093-4.729.62s0-3.1.93-4.652c3.877-8.218,12.327-10.544,19.226-14.73,4.885-2.946,10.389-5.039,15.505-7.753a17.752,17.752,0,0,0-16.435.853h0a6.89,6.89,0,0,0-2.481,0,33.572,33.572,0,0,1-18.995,4.574,6.862,6.862,0,0,0-4.341,2.4,65.592,65.592,0,0,0-12.094,27.135h0l-1.861,4.109c-2.946,6.28-3.8,6.59-8.916,1.628a19.69,19.69,0,0,0-10.078-3.8,41.772,41.772,0,0,1-10.157-2.636,70.882,70.882,0,0,0,20.468-10,8.683,8.683,0,0,0-1.163-15.505,37.069,37.069,0,0,0-11.862-2.636c-2.171-.466-5.892,0-6.124-2.559-.853-7.753-4.5-3.721-8.373-3.1s-4.807,5.194-7.753,7.055c-1.705,2.558-6.357,3.954-2.636,8.528.93,1.163-.775,3.566-2.559,4.652a105.894,105.894,0,0,1-5.117,11.784c-.7,1.86-.93,4.264-2.171,5.272-4.031,3.1-8.839,5.272-4.109,11.629.775,1.086-.7,4.109-1.473,6.125C557.127,399.747,554.724,404.786,558.213,408.74Zm28.917-53.494c1.473-3.411,13.1-3.644,15.505-.62s.621,4.807-1.4,6.745a49.313,49.313,0,0,1-20.08,10.466,58.721,58.721,0,0,1,5.97-16.591ZM588.6,382.3c3.333.853,9.691,0,10.7,4.729s-4.574,6.977-8.761,8.683-9.226,3.644-13.955,5.194-6.125,1.163-4.884-4.342c2.481-11.319,5.039-14.265,16.9-14.265Z" transform="translate(-261.088 -379.247)" fill="#fff"/>
    <path id="패스_420" data-name="패스 420" d="M543.524,405.217a8.683,8.683,0,0,0,10.544-5.349c3.1-7.753,6.822-14.808,10.466-22.1.775-1.551,0-4.807,2.869-4.109s1.318,3.334,1.4,5.194c0,6.28,0,12.637.465,18.839s3.256,7.21,8.916,5.427a10.544,10.544,0,0,0,7.752-7.287,249.809,249.809,0,0,1,25.2-48.687c1.085-1.628,4.961-3.1,1.705-5.737s-5.5-4.032-8.838-1.473a15.9,15.9,0,0,0-4.109,4.109c-2.248,3.644-4.186,7.753-6.2,11.319-4.109,7.753-7.753,15.506-12.947,25.2a91.031,91.031,0,0,1,.7-24.654c.7-3.877,1.086-8.683-3.256-10.156s-7.21,1.938-9.691,5.117a26.167,26.167,0,0,0-2.636,4.5l-9.226,19.3c-2.093.7-2.481,0-2.481-2.171a24.262,24.262,0,0,0,0-9.458h0c0-3.877.465-7.753.465-11.707a4.652,4.652,0,0,0-5.582-4.885c-2.713,0-6.977-.465-6.9,4.729,0,15.505-3.024,31.011-2.559,46.051C539.492,400.565,538.717,404.6,543.524,405.217Z" transform="translate(-375.171 -376.654)" fill="#fff"/>
    <path id="패스_421" data-name="패스 421" d="M569.959,405.811c-1.318,3.411,0,5.272,3.333,5.039a26.667,26.667,0,0,0,15.5-3.179,227.274,227.274,0,0,1,20.467-12.327c1.4-.852,2.713-3.178,4.42-2.015s.7,3.489,0,5.349a22.045,22.045,0,0,1-.931,2.4c-1.007,2.869-1.472,5.737,1.474,7.753a7.753,7.753,0,0,0,8.993-1.085,12.324,12.324,0,0,0,3.333-6.9,374.46,374.46,0,0,1,18.761-53.029c1.086-2.326,4.031-4.729,1.163-7.753s-5.659-1.473-8.605-.543a10.312,10.312,0,0,0-6.125,7.133q-6.978,18.374-14.11,36.825a202.064,202.064,0,0,0-27.987,11.707,16.591,16.591,0,0,1,1.628-7.753,82.571,82.571,0,0,0,6.668-19.924h0c1.628-5.117,3.643-10.156,4.962-15.505.7-3.024,3.023-7.133-1.551-9.071a9.071,9.071,0,0,0-12.714,8.993,19.469,19.469,0,0,1-1.551,7.753C581.433,374.8,575.851,390.306,569.959,405.811Z" transform="translate(-172.748 -378.644)" fill="#fff"/>
    <path id="패스_422" data-name="패스 422" d="M614.925,372.585c5.039-2.016,9.768-4.574,15.505-7.287a16.98,16.98,0,0,0-15.505-.621c-2.559.931-5.815,3.8-7.753,1.861s1.706-5.66,3.024-8.451c.62-1.163,2.248-1.938,3.489-2.791a305.089,305.089,0,0,1,28.762-16.2,26.511,26.511,0,0,0-13.257,0c-6.357,2.171-11.939,7.753-18.762,6.667a11.086,11.086,0,0,0-13.1,8.528,81.493,81.493,0,0,1-4.186,8.683,237.687,237.687,0,0,0-10.776,22.483,103.217,103.217,0,0,0-4.341,20.777c-.543,2.558,1.318,3.256,3.566,3.411a28.063,28.063,0,0,0,18.683-3.411c7.21-4.729,14.653-9.148,21.708-14.11,1.86-1.4,6.589-2.016,4.884-5.5s-6.047-2.171-9.226-.853a32.576,32.576,0,0,0-4.652,2.326c-4.884,2.791-9.769,5.582-14.575,8.45-1.4.775-2.868,1.628-4.186.62s0-2.326,0-3.489C596.474,382.043,604.846,376.694,614.925,372.585Z" transform="translate(-115.533 -378.909)" fill="#fff"/>
    <path id="패스_423" data-name="패스 423" d="M592.97,386.436a32.63,32.63,0,0,1-3.178,18.064c-.931,3.411,0,5.349,3.721,5.582a28.453,28.453,0,0,0,19.226-4.109c6.978-4.729,14.265-8.916,21.165-13.722,1.861-1.24,5.892-2.016,4.574-5.194s-5.272-2.4-7.753-1.473a25.041,25.041,0,0,0-5.814,2.791c-5.04,2.869-10,5.97-15.505,8.761-2.713,1.473-4.342,1.008-3.411-2.481,2.016-7.055,3.024-14.575,11.551-17.521a49.006,49.006,0,0,0,9.226-4.652,65.238,65.238,0,0,0,14.187-7.753,20.544,20.544,0,0,0-18.141,1.473c-1.241.543-2.869,1.861-4.186.543s0-3.256.543-4.807a23.263,23.263,0,0,1,9.691-9.225c8.218-4.807,16.591-9.071,25.2-13.567a24.574,24.574,0,0,0-13.18,0c-6.435,2.326-12.249,7.288-19.3,6.745a11.629,11.629,0,0,0-12.792,8.451c-3.489,7.752-7.753,16.048-10.466,24.344C597.08,382.25,592.273,383.567,592.97,386.436Z" transform="translate(-37.682 -378.961)" fill="#fff"/>
    <path id="패스_424" data-name="패스 424" d="M550.427,386.535a59.226,59.226,0,0,1-3.178,18.3c-.62,3.8.7,4.962,4.186,5.5a32.174,32.174,0,0,0,21.4-5.815,71.952,71.952,0,0,0,19.148-11.242c2.481-1.86,7.753-3.333,4.885-7.753s-6.977-2.093-10.7-1.163c-.775,0-1.4,1.086-2.171,1.4a134.647,134.647,0,0,1-20.312,10.389c2.4-6.977,3.333-13.645,9.226-17.831h0l25.506-13.1c-8.76-4.962-15.893,1.473-24.266,1.86,7.753-16.9,24.188-19.537,36.825-27.987a24.5,24.5,0,0,0-12.947,0c-7.753,2.558-14.653,8.606-23.8,6.823-2.868-.465-4.729,1.938-6.047,4.264a133.927,133.927,0,0,0-11.241,24.731C555.466,379.79,549.962,383.046,550.427,386.535Z" transform="translate(-323.697 -379.137)" fill="#fff"/>
    <path id="패스_425" data-name="패스 425" d="M635.289,339.984c-1.938-2.248-4.419-1.24-6.667-.543-7.21,2.248-9.769,8.761-13.335,14.42-6.124,5.194-7.753,13.878-14.653,20.467.465-7.21.775-12.715,1.163-18.219a27.965,27.965,0,0,1,.543-5.117c.775-3.256,1.86-6.59-2.016-8.451a7.752,7.752,0,0,0-9.768,2.326,9.066,9.066,0,0,0-1.318,4.885c-1.4,15.505-2.869,31.476-4.109,47.214,0,3.334,0,7.133,4.419,7.753s9.691,1.473,11.862-4.031c7.753-19.847,21.4-36.515,32.794-54.269C635.522,344.093,637.228,342.31,635.289,339.984Z" transform="translate(-66.899 -376.545)" fill="#fff"/>
    <path id="패스_426" data-name="패스 426" d="M570.29,411.236c-3.4.623-3.643-1.582-3.212-3.882.767-4.362.863-8.771,1.342-13.133.719-6.231,1.007-12.558,2.157-18.693a58.048,58.048,0,0,0,1.055-13.468,5.943,5.943,0,0,0-5.8-6.087,32.114,32.114,0,0,0-18.5,3.595c-2.109,1.2-4.458,2.54-4.793,5.416h0a318.991,318.991,0,0,0-35.373,58.379c-3.643,7.046-5.464,15.625-14.859,17.974-1.725.431-3.595,1.486-3.547,3.355a4.5,4.5,0,0,0,3.93,4.026c2.2.479,2.013,1.486,1.294,3.163a122.7,122.7,0,0,0-6.471,15.05,4.793,4.793,0,0,0,4.553,6.518,40.311,40.311,0,0,0,14-3.259,5.417,5.417,0,0,0,3.02-3.6c1.917-5.368,3.691-10.832,5.608-16.2s2.732-10.209,9.011-12.126a156.325,156.325,0,0,0,15.625-6.279c7.094-2.972,7.477-2.78,6.806,4.793a234.389,234.389,0,0,0,.336,25.307c0,6.087,3.211,9.586,7.669,8.771a39.736,39.736,0,0,0,13.324-2.876h0a3.115,3.115,0,0,0,1.821-5.033,8.722,8.722,0,0,1-1.006-3.4,261.972,261.972,0,0,1-1.63-31.25c0-4.362.336-7.477,5.7-8.1,1.822,0,4.793-1.39,3.978-4.506S573.933,410.565,570.29,411.236Zm-23.965,6.518a3.547,3.547,0,0,1-2.78,3.355c-5.176,2.109-10.4,4.074-15.673,6.039-.911.336-2.061,1.1-2.972,0s0-2.061.383-2.924c4.793-10.832,9.586-21.569,15.433-32.017,3.595-3.451,4.793-8.723,8.723-12.75h0v5.464c-.863,11.072-2.061,21.952-3.02,32.832Zm17.207-60.967Z" transform="translate(-487.2 -271.516)" fill="#fff"/>
  </g>
</svg>
