<svg xmlns="http://www.w3.org/2000/svg" width="516.924" height="281.976" viewBox="0 0 516.924 281.976">
  <g id="handwriting2" transform="translate(-0.059 0.047)">
    <path id="패스_427" data-name="패스 427" d="M265.662,422.18c5.358-1.212,10.853-1.447,16.25-2.347,1.7-.293,3.794-1.115,5.123-.254,3.324,2.151,6.375,1.173,9.6.137a5.123,5.123,0,0,0,3.637-4.439c.293-1.506.665-2.992.9-4.517a2.073,2.073,0,0,1,1.545-1.819c5.417-2.151,10.775-4.4,16.152-6.609.528-.215,1.115-.626,1.643-.156s.156,1.115,0,1.643c-1.017,4.263-1.955,8.526-3.168,12.73-1.251,4.556-1.036,4.967,3.911,4.908a18.4,18.4,0,0,0,6.3-1.154,6.023,6.023,0,0,0,4.38-5.378c.548-3.148,1.369-6.258,2.151-9.367,1.819-7.059,3.6-14.1,5.612-21.1,2.425-8.409,4.556-16.876,6.844-25.3.528-1.955.117-2.562-1.858-2.738a21.607,21.607,0,0,0-8.213,1.056,5.867,5.867,0,0,0-4.83,4.967,72.347,72.347,0,0,1-2.405,8.6A2.679,2.679,0,0,1,327.67,373c-5.866,2.386-11.87,4.791-17.814,7.137-.743.293-1.584,1.349-2.327.547s0-1.819,0-2.738a6.052,6.052,0,0,1,.274-.841c.7-2.972,1.486-5.866,2.131-8.936.528-2.542-.2-3.52-2.816-3.774a12.143,12.143,0,0,0-8,2.366,3.794,3.794,0,0,0-1.584,2.5c-1.291,5.534-2.7,11.048-3.911,16.582a1.779,1.779,0,0,1-1.721,1.584q-11.733,1.78-23.466,3.676c-1.017.176-1.33-.313-1.271-1.193a19.554,19.554,0,0,1,.235-2.62c.86-4.81,1.193-9.777,2.249-14.49.45-2.092-.293-2.972-2.5-3.187a13.239,13.239,0,0,0-6.023.665,6.062,6.062,0,0,0-4.38,5.182,109.3,109.3,0,0,0-1.662,11.459c-.176,3.559-.978,5.456-4.967,6.277s-8.037,3.07-11.948,4.732c-.45.2-.919.684-1.388.313s-.156-1.056,0-1.623c.45-1.682.919-3.363,1.291-5.084,2.483-11.322,5.378-22.527,8.389-33.732.391-1.486.1-2.19-1.486-2.386a19.32,19.32,0,0,0-11.2,2.112,3.363,3.363,0,0,0-1.76,2.131c-2.307,8.976-4.713,17.912-6.942,26.888-2.131,8.624-4.126,17.306-6.121,25.949a1.955,1.955,0,0,1-2.092,1.721,39.333,39.333,0,0,0-5.026.45c-6.14.763-12.3,1.525-18.44,2.386-1.6.235-1.955-.313-1.721-1.74s.645-2.855.86-4.283c.645-4.322.88-8.819,5.749-10.931.235,0,.391-.411.606-.606,5.866-5.006,8.115-11.948,10.305-18.909a26.77,26.77,0,0,0,.939-15.644c-1.1-3.911-5.026-8.174-8.585-8.408a28.648,28.648,0,0,0-15.9,3.168c-13.258,7.333-19.164,22.82-16.6,37.017.88,4.908,3.363,8.7,8.741,9.777,1.134.215,1.134.763.939,1.7-.7,3.285-1.408,6.57-1.955,9.895a2.464,2.464,0,0,1-2.327,2.386q-5.612.939-11.2,1.955a14.472,14.472,0,0,0-6.649,2.581c-1.252,1.017-3.3,1.955-2.483,3.911s2.816,1,4.361.724c9.777-1.74,19.359-3.637,29.078-5.26q13.943-2.288,28.022-3.3c1.33-.1,1.486.508,1.212,1.6-.45,1.7-.782,3.422-1.232,5.1s0,2.405,1.7,2.523a20.531,20.531,0,0,0,10.853-1.955,4.126,4.126,0,0,0,2.249-3.246c1.232-5.866,2.659-11.5,3.911-17.267a2.894,2.894,0,0,1,1.956-2.21c5.241-2.171,10.5-4.263,15.644-6.512,1.545-.665,1.955-.587,1.7,1.193-.841,6.805-1.525,13.688-2.855,20.357-.411,1.955.43,3.011,2.327,3.422a7.294,7.294,0,0,0,3.051,0C259.267,423.529,262.474,422.884,265.662,422.18Zm37.506-21.823q.88-5.162,1.819-10.325c.215-1.212,1.291-1.525,2.21-1.955l16.817-6.766c.665-.274,1.427-.724,1.955-.274s0,1.212-.137,1.779c-.665,2.757-1.525,5.495-2.073,8.272-.43,2.21-1.955,3.031-3.755,3.755q-7.157,2.933-14.275,5.866a19.109,19.109,0,0,1-1.955.645c-.8.293-.684-.45-.606-1ZM264.449,411.64c1.017-3.09.684-6.336,1.212-9.5a2.073,2.073,0,0,1,1.779-1.956c7.079-1.76,14.353-2.347,21.51-3.4,1.682-.235,2.62-.137,1.955,2.131a88.1,88.1,0,0,0-1.955,9.621,1.525,1.525,0,0,1-1.506,1.486q-10.7,1.564-21.373,3.168c-1.212.2-1.877-.078-1.623-1.545Zm-77.789-11.635c-1.134-.176-1.721-1.31-2.092-2.347a42.3,42.3,0,0,1-1.956-12.183,38.6,38.6,0,0,1,5.4-19.379c.919-1.584,1.955-3.461,3.911-3.383s3.227,1.956,4.2,3.715c2.366,4.322,1.643,8.8.528,13.18a68.952,68.952,0,0,1-7.626,18.46c-.567.978-1.134,2.112-2.366,1.936Z" transform="translate(-153.39 -187.26)" fill="#fff" stroke="#fff" stroke-miterlimit="10" stroke-width="1"/>
    <path id="패스_428" data-name="패스 428" d="M473.11,420.089a2.777,2.777,0,0,0-2.523-1.467,32.708,32.708,0,0,0-4.38.1c-7.822.88-15.8,1.779-23.642,3.109-10.149,1.7-20.22,3.715-30.193,6.218-3.207-.156-6.1,1.662-9.5,1.779.978-1.467,2.7-1.349,3.4-2.6h0c7.02-3.676,13.982-7.47,21.06-10.99,6.512-3.246,13.454-5.534,19.75-9.23a29.977,29.977,0,0,0,9.308-7.47c1.7-2.288,1.1-3.755-1.76-4.243a10.279,10.279,0,0,0-1.74,0,89.536,89.536,0,0,0-14.783,1.623c-3.578.665-7.137,1.506-10.7,2.249-1.408.293-2.249.176-1.858-1.721.587-2.855.958-5.749,1.271-8.643.137-1.232.528-1.819,1.8-1.955,5.143-.528,10.286-1.173,15.429-1.643,5.964-.548,11.948-.86,17.893-1.428a16.543,16.543,0,0,0,8.78-4.048c.645-.508,1.212-1.154.88-2.073s-1.193-.724-1.956-.9a4.163,4.163,0,0,0-1.31,0c-6.688.508-13.395.9-20.063,1.584-15.39,1.564-30.779,3.031-46.012,5.866-9.621,1.76-19.124,4.028-28.55,6.512a11.049,11.049,0,0,0-6.023,2.914,2.425,2.425,0,0,0-.724,2.386,2.21,2.21,0,0,0,1.956,1.486,9.425,9.425,0,0,0,3.911-.2c10.051-2.875,20.317-4.732,30.584-6.59,2.5-.45,5.045-.743,7.568-1.1.8-.1,1.525,0,1.349,1.115q-.958,6.042-1.955,12.085a2.229,2.229,0,0,1-1.7,1.956q-9.015,3.285-17.971,6.785a33.686,33.686,0,0,0-7.274,3.383,2.581,2.581,0,0,0-1.506,2.483,2.347,2.347,0,0,0,2.171,1.858,12.085,12.085,0,0,0,6.922-.137c3.813-1.427,7.529-3.09,11.322-4.576a205.982,205.982,0,0,1,31.483-9.777,2.523,2.523,0,0,1,2.268.215,39.659,39.659,0,0,1-9.328,4.85A286.936,286.936,0,0,0,392,426.6c-4.361,2.444-8.761,4.83-13.16,7.255-3.52.7-6.179,3.168-9.289,4.732a63.137,63.137,0,0,0-7.548,4.38,2.738,2.738,0,0,0-1.525,2.7c.2,1.271,1.271,1.682,2.268,2.131a4.732,4.732,0,0,0,1.721.332,19.752,19.752,0,0,0,7.978-.821c3.148-1.271,6.629-1.643,9.582-3.52a6.247,6.247,0,0,1,1.154-.547c8.545-2.66,17.169-5.065,25.851-7.314s16.837-4.185,25.421-5.71a267.725,267.725,0,0,1,29.508-3.911,10.814,10.814,0,0,0,8.056-3.344C472.8,422.025,473.677,421.223,473.11,420.089Z" transform="translate(43.233 -166.806)" fill="#fff" stroke="#fff" stroke-miterlimit="10" stroke-width="1"/>
    <path id="패스_429" data-name="패스 429" d="M367.875,356.933a59.086,59.086,0,0,0-8.1.391c-10.5,1.252-20.963,2.7-31.288,4.83-9.132,1.955-18.245,3.911-27.259,6.3-.411-.293-1.31.137-1.271-.841h0c2.816-1.506,5.651-2.953,8.448-4.5,10.97-6.023,22.312-11.283,33.634-16.563a29.586,29.586,0,0,0,11.6-8.7c.626-.841,1.6-1.779.9-2.953a3.481,3.481,0,0,0-3.011-1.506,33.681,33.681,0,0,0-3.715,0c-3.911.391-7.665.86-11.5,1.31a7.391,7.391,0,0,0,4.713-5.71c.841-5.084,2.21-10.09,3.3-15.155a3.911,3.911,0,0,1,2.855-3.442,95.029,95.029,0,0,0,9.367-3.559,41.225,41.225,0,0,0,8.819-4.263c.763-.567,1.721-1.154,1.486-2.229a2.64,2.64,0,0,0-2.464-1.956,12.047,12.047,0,0,0-4.576.215,119.063,119.063,0,0,0-11.166,4.38c-.489.156-1,.587-1.447.274s-.254-1.076-.137-1.623c.489-2.073,1.017-4.107,1.525-6.16l5.866-23.466c.469-1.819-.156-2.483-1.8-2.581a22.546,22.546,0,0,0-8.819,1.291c-1.584.548-3.442.978-3.911,2.816-2.151,8.389-4.2,16.8-6.218,25.226-1.721,7.157-3.324,14.353-4.967,21.51-.958,4.185-1.955,8.369-2.875,12.574-.332,1.506.117,2.425,1.955,2.327h3.129c-4.322,1.564-8.663,2.64-12.965,3.911a283.36,283.36,0,0,0-28.589,10.11c-2.7,1.1-5.378,2.268-7.959,3.579-1,.489-2.151,1.271-1.956,2.659s1.252,1.486,2.249,1.838a8.585,8.585,0,0,0,6.2,0c3.109-1.232,6.2-2.523,9.308-3.774a256.777,256.777,0,0,1,27.494-9.308,40.929,40.929,0,0,1,9-1.6,44.978,44.978,0,0,1-10.5,5.651c-5.143,2.229-10.462,4.067-15.448,6.57-11.733,5.866-23.172,12.476-34.592,19.046-4.341,2.483-8.663,5.026-12.965,7.587-.821.489-1.7,1.173-1.525,2.21s1.31,1.447,2.366,1.584a19.75,19.75,0,0,0,9.054-.665q9.034-2.953,18.127-5.651c9.152-2.7,18.381-5.162,27.67-7.333q12.476-2.933,25.108-4.908c7.7-1.173,15.468-1.956,23.251-2.738A8.525,8.525,0,0,0,369.733,361a2.425,2.425,0,0,0,.782-2.757,2.542,2.542,0,0,0-2.64-1.31Z" transform="translate(-53.66 -268.94)" fill="#fff" stroke="#fff" stroke-miterlimit="10" stroke-width="1"/>
    <path id="패스_430" data-name="패스 430" d="M388.819,359.164c-.9.137-1.838.235-2.19-.88a3.169,3.169,0,0,0-2.7-1.838c-5.534-1.056-9.777,1.779-10.384,7.137-1.056,10.951-1.956,21.921-2.894,32.891a2.816,2.816,0,0,0,2.581,3.187,20.381,20.381,0,0,0,2.875.215c3.911-.606,8.193-1.212,12.515-1.956,5.456-.939,10.911-1.955,16.328-3.011,7.7-1.584,15.448-2.992,23.251-4.028,4.3-.567,8.741-.724,12.476-3.4a4.4,4.4,0,0,0,1.955-3.168c.606-3.676,1.408-7.294,2.112-10.951,1.076-5.436,2.19-10.853,3.168-16.289.391-2.268-.313-2.953-2.581-2.992-3.5,0-6.981.489-10.462.7C419.5,355.683,404.111,356.876,388.819,359.164Zm40.967,6.688c-1.115,5.28-2.112,10.579-3.051,15.9a2.229,2.229,0,0,1-2.21,2.17c-8.936,1.33-17.814,3.031-26.673,4.85-3.911.8-7.822,1.427-11.831,2.131-1.369.254-2.073.215-1.955-1.721.763-7.1,1.271-14.216,1.779-21.354.117-1.584.606-2.229,2.288-2.444q15.194-1.955,30.505-2.718c2.6-.117,5.221-.489,7.822-.724C430.725,361.745,430.646,361.745,429.786,365.852Z" transform="translate(52.942 -188.304)" fill="#fff" stroke="#fff" stroke-miterlimit="10" stroke-width="1"/>
    <path id="패스_431" data-name="패스 431" d="M340.482,337.889a36.352,36.352,0,0,0,14.1-19.144c2.327-6.844,4.6-13.688,4.869-19.789a25.7,25.7,0,0,0-1.838-10.775c-1.7-3.911-4.771-7.2-8.976-7.529-9.054-.665-17.6,1.721-23.954,8.448-11.185,11.733-14.9,25.91-12.4,41.691.724,4.634,2.972,8.78,7.822,10.481C327.537,343.814,334.264,342.054,340.482,337.889Zm-13.571-18.166a56.846,56.846,0,0,1,7.157-28.2c.117-.176.2-.391.313-.567,1.154-1.467,1.955-3.637,4.185-3.442s3.246,2.327,4.107,4.146a22.664,22.664,0,0,1,1.721,12.4A71.826,71.826,0,0,1,336,330.028a19.235,19.235,0,0,1-1.8,2.718c-1.956,2.483-3.735,2.386-5.358-.45a17.051,17.051,0,0,1-1.955-8.213C326.872,322.636,326.911,321.17,326.911,319.723Z" transform="translate(-3.264 -258.285)" fill="#fff" stroke="#fff" stroke-miterlimit="10" stroke-width="1"/>
    <path id="패스_432" data-name="패스 432" d="M355.418,279.961a5.1,5.1,0,0,0,3.911,1.349,59.687,59.687,0,0,1,6.746.157c2.523.332,2.7.626,2.073,3.031a36.167,36.167,0,0,0-.958,3.911c-.274,2.19-1.369,4.3-.8,6.59-.684,2.757-1.408,5.514-1.955,8.272a50.726,50.726,0,0,0-2.151,12.691,3.911,3.911,0,0,0,4.361,4.243,28.512,28.512,0,0,0,8.057-1.955c8.154-2.464,16.406-4.517,24.717-6.394a165.008,165.008,0,0,1,28.315-3.97,19.2,19.2,0,0,0,10.99-3.735c.665-.489,1.662-1.1,1.349-2.053s-1.564-1.036-2.464-1c-2.112,0-4.224.372-6.336.489a212.185,212.185,0,0,0-36.88,5.866c-4.947,1.173-9.777,2.562-14.8,3.794-2.464.626-2.6.508-2.229-2.112a37.685,37.685,0,0,1,.86-3.911c1.173-4.576,2.366-9.152,3.539-13.688a36,36,0,0,0,1.955-6.649c.293-.919.587-1.74,1.779-1.955a21.723,21.723,0,0,1,6.16-.313c12.593.8,25.186,1.662,37.819,1.955a13.453,13.453,0,0,0,9.093-3.676,2.8,2.8,0,0,0,1.252-3.227c-.489-1.212-1.76-1.369-2.972-1.427-9.777-.43-19.555-.782-29.332-1.31-6.844-.391-13.688-1.017-20.513-1.525a6.885,6.885,0,0,0-2.092-.548c-6.766-1.076-13.688-.958-20.435-1.545a9.64,9.64,0,0,0-8.6,3.911C354.949,276.753,353.423,278.181,355.418,279.961Z" transform="translate(37.476 -267.136)" fill="#fff" stroke="#fff" stroke-miterlimit="10" stroke-width="1"/>
    <path id="패스_433" data-name="패스 433" d="M337.62,367.89h1.76a20.466,20.466,0,0,0,2.19,0c5.866-.606,8.174-2.464,9.21-7.1q2.718-12.163,5.729-24.267c2.092-8.467,4.322-16.934,6.512-25.421q2.914-11.2,5.866-22.41c1.212-4.654,2.483-9.288,3.774-13.943.469-1.74,0-2.659-1.955-2.777a21.141,21.141,0,0,0-10.032,1.78,4.889,4.889,0,0,0-2.816,3.618c-1.252,4.869-2.5,9.777-3.794,14.588-3.4,12.75-6.922,25.421-10.168,38.21-2.953,11.733-5.593,23.466-8.369,35.081C335.058,367.225,335.43,367.714,337.62,367.89Z" transform="translate(19.425 -266.521)" fill="#fff" stroke="#fff" stroke-miterlimit="10" stroke-width="1"/>
    <path id="패스_434" data-name="패스 434" d="M333.746,418.454c3.578-7.274,7.529-14.412,11.381-21.51.313-.548.352-1.623,1.252-1.545.606,0,.86.86,1.193,1.447q4.37,7.773,8.819,15.526a3.754,3.754,0,0,0,3.285,2.21,17.756,17.756,0,0,0,10.677-3.266,1.955,1.955,0,0,0,.469-2.835c-5.456-9.015-10.129-18.479-15.859-27.377a2.757,2.757,0,0,1,0-3.227c2.112-3.813,4.126-7.665,6.179-11.5,1.388-2.6.919-4.146-1.506-5.358a6.257,6.257,0,0,0-3.187-.665,10.266,10.266,0,0,0-9.777,5.749c-6.961,12.926-13.493,26.066-20.239,39.109-2.131,4.126-4.3,8.232-6.453,12.359a2.835,2.835,0,0,0,1.291,4.224C324.887,423.773,331.907,422.248,333.746,418.454Z" transform="translate(4.304 -182.439)" fill="#fff" stroke="#fff" stroke-miterlimit="10" stroke-width="1"/>
    <path id="패스_435" data-name="패스 435" d="M267.553,336.26a9.78,9.78,0,0,0,4.791,0c14.158-3.911,27.787-9.484,41.612-14.451,1.408-.489,2.8-1.017,3.09-2.718s-1.036-2.718-2.307-3.618a7.978,7.978,0,0,0-8.33,0h0c-1.349.606-2.8,1-4.146,1.525-6.981,2.7-14.04,5.143-21.08,7.665-.528.2-1.134.7-1.623.313s-.176-1.232,0-1.858c.45-2.21.9-4.419,1.369-6.629q3.911-18.284,7.822-36.528c1.1-5.084-.117-6.59-5.3-6.394a1.582,1.582,0,0,0-.43,0c-4.634.88-7.47,2.229-8.232,7.431-1.134,7.626-2.914,15.174-4.634,22.7-2.092,9.249-3.911,18.518-5.69,27.846C263.779,334.54,264.542,335.6,267.553,336.26Z" transform="translate(-48.325 -264.967)" fill="#fff" stroke="#fff" stroke-miterlimit="10" stroke-width="1"/>
    <path id="패스_436" data-name="패스 436" d="M238.05,312.218c-1.584,1.486-1.271,2.933.782,3.52a6.024,6.024,0,0,0,1.955.274,27.045,27.045,0,0,0,7.45-1.643c4.576-1.682,9.171-3.285,13.688-4.967,1.271-.45,1.76-.293,1.349,1.212s-.8,3.559-1.173,5.338c-1.584,7.177-3.07,14.392-4.771,21.51-1.017,4.322-.86,4.674,3.911,4.634a17.443,17.443,0,0,0,7.489-1.76,4.947,4.947,0,0,0,3.011-3.911c.372-1.955.763-3.911,1.193-5.769,1.955-8.369,3.911-16.719,5.866-25.108,2.288-10.462,4.908-20.826,7.45-31.287.528-2.151.274-2.718-1.838-2.835a20.277,20.277,0,0,0-10.6,2.112,3.735,3.735,0,0,0-2.092,2.62c-1.956,7.822-3.911,15.526-5.866,23.309a3.011,3.011,0,0,1-1.956,2.268c-6.1,2.816-12.613,4.439-18.831,6.9A20.061,20.061,0,0,0,238.05,312.218Z" transform="translate(-74.213 -267.049)" fill="#fff" stroke="#fff" stroke-miterlimit="10" stroke-width="1"/>
    <path id="패스_437" data-name="패스 437" d="M361.889,418.262a1.447,1.447,0,0,0,1.369,1.956,16.092,16.092,0,0,0,2.19.117,19.185,19.185,0,0,0,7.822-1.486,4.517,4.517,0,0,0,3.266-3.207c1.467-6.9,2.953-13.825,4.556-20.689,2.757-11.733,5.221-23.622,8.428-35.3.567-2.053,0-2.777-2.249-2.894a23.468,23.468,0,0,0-8.37,1.369,5.867,5.867,0,0,0-4.38,4.81c-1.1,4.752-2.581,9.425-3.461,14.216-.567,3.09-1.584,5.456-5.006,6.473-4.458,1.31-8.8,3.051-13.141,4.713A27.259,27.259,0,0,0,344.6,392.1c-.665.567-1.662,1.232-1.232,2.347a2.894,2.894,0,0,0,2.347,1.76,11.049,11.049,0,0,0,4.987-.411c4.6-1.6,9.171-3.266,13.688-4.869,1-.352,2.21-1.506,3.011-.743s.1,2.347-.176,3.52Q364.666,406,361.889,418.262Z" transform="translate(26.956 -185.778)" fill="#fff" stroke="#fff" stroke-miterlimit="10" stroke-width="1"/>
    <path id="패스_438" data-name="패스 438" d="M315.542,388.938a13.375,13.375,0,0,0-6.394,1.193c-2.738,1.115-5.475,2.307-8.213,3.461-.391.176-.821.45-1.212.117s0-.8,0-1.193c.606-2.405,1.212-4.81,1.838-7.2q3.187-12.261,6.453-24.5c.45-1.721-.254-2.444-1.955-2.6a20.533,20.533,0,0,0-7.568.978c-2.19.645-4.517,1.291-5.241,4.048-1.721,6.629-3.618,13.2-5.26,19.829q-4.458,17.8-8.643,35.648c-.254,1.1-.763,2.268.215,3.324,3.09,1.212,6.1.43,9.132-.293a6.786,6.786,0,0,0,5.866-6.218c.567-4.009,1.955-7.822,2.816-11.87a2.855,2.855,0,0,1,2.073-2.229c3.911-1.506,7.822-2.972,11.537-4.634,1.232-.528,2.738-.626,3.559-1.955h0a23.566,23.566,0,0,0,2.249-1.349c1-.723,2.21-1.506,1.682-2.992S316.774,389.113,315.542,388.938Z" transform="translate(-34.262 -184.424)" fill="#fff" stroke="#fff" stroke-miterlimit="10" stroke-width="1"/>
    <path id="패스_439" data-name="패스 439" d="M289.169,390.956a16.3,16.3,0,0,0-1.956,0V390.8c-10.071,1.271-20.141,2.366-30.173,3.911-13.2,1.956-26.418,3.657-39.774,4.38a18.5,18.5,0,0,0-10.931,4.478,1.78,1.78,0,0,0-.821,1.956c.254.9,1.1.88,1.8.86,1.682,0,3.363-.176,5.026-.274,9.914-.567,19.75-1.8,29.586-3.031,10.423-1.291,20.826-2.8,31.288-4.283,1.7-.235,1.955.215,1.447,1.682-3.422,9-5.514,18.4-8.624,27.494-.821,2.386-.235,3.109,2.307,3.266a22.957,22.957,0,0,0,7.939-1.252,6.864,6.864,0,0,0,4.791-5.1c3.461-10.266,5.866-20.865,9.934-30.955C291.593,392.051,291.026,391.191,289.169,390.956Z" transform="translate(-104.324 -153.337)" fill="#fff" stroke="#fff" stroke-miterlimit="10" stroke-width="1"/>
    <path id="패스_440" data-name="패스 440" d="M403.726,300.715c-5.964.978-11.948,1.956-17.912,2.953-7.47,1.252-14.94,2.523-22.41,3.911a19.927,19.927,0,0,0-10.208,5.084c-1.036.978-1.956,2.249-1.271,3.676s2.131,1.33,3.481,1.271a6.116,6.116,0,0,0,.86,0L370.7,315.03c10.911-1.956,21.8-4.067,32.754-5.769a319.356,319.356,0,0,1,35.863-3.755,18.753,18.753,0,0,0,7.568-1.838,16.7,16.7,0,0,0,7.02-5.026c1.115-1.6.665-2.64-1.291-2.757s-3.5,0-5.26,0h0c-5.573.508-11.166,1-16.739,1.564C421.6,298.115,412.643,299.229,403.726,300.715Z" transform="translate(34.848 -243.757)" fill="#fff" stroke="#fff" stroke-miterlimit="10" stroke-width="1"/>
    <path id="패스_441" data-name="패스 441" d="M240.979,401.377a68.316,68.316,0,0,0-9.973,1.134,198.372,198.372,0,0,0-22.449,4.811c-9.777,2.659-19.359,5.866-28.843,9.484-.567.215-1.193,1.036-1.76.469s0-1.506.2-2.249c1.955-5.573,3.911-11.127,5.866-16.7.821-2.405,0-3.481-2.6-3.285a26.053,26.053,0,0,0-4.752.7c-3.7,1.017-6.961,2.249-8.174,6.766-1.955,7.45-5.084,14.549-7.157,21.979-.841,3.011-.372,3.657,2.562,3.618a19.124,19.124,0,0,0,7.04-1.388c9.64-3.911,19.222-7.978,29.156-11.166a189.293,189.293,0,0,1,33.81-7.822,14.372,14.372,0,0,0,8.33-2.933c.723-.645,1.819-1.291,1.33-2.5S241.937,401.377,240.979,401.377Z" transform="translate(-146.658 -149.307)" fill="#fff" stroke="#fff" stroke-miterlimit="10" stroke-width="1"/>
    <path id="패스_442" data-name="패스 442" d="M408.1,402.311a1.838,1.838,0,0,0,.684-1.956c-.274-.9-1.017-.958-1.76-.978a26.846,26.846,0,0,0-3.07,0,194.538,194.538,0,0,0-19.555,3.383,252.578,252.578,0,0,0-29.762,8.6c-3.3,1.154-6.551,2.444-9.777,3.637-.528.2-1.154.508-1.662,0s0-.782.137-1.173c1.955-5.729,3.637-11.537,5.866-17.11,1.232-3.031.469-4.067-2.914-3.911a23.093,23.093,0,0,0-8.585,2.327,5.221,5.221,0,0,0-3.031,3.188c-2.542,7.822-5.632,15.644-7.822,23.6-1.036,3.7-1,3.911,2.8,3.911a23.779,23.779,0,0,0,9.484-2.327,276.232,276.232,0,0,1,28.55-10.833,182.934,182.934,0,0,1,33.478-7.313,11.5,11.5,0,0,0,6.942-3.05Z" transform="translate(10.728 -151.434)" fill="#fff" stroke="#fff" stroke-miterlimit="10" stroke-width="1"/>
    <path id="패스_443" data-name="패스 443" d="M242.315,315.523c1.173-3.266,1.251-3.246-1.643-4.556a5.984,5.984,0,0,0-4.243.1c-3.011.665-6.121,1.349-8,4.224-1.623,4.752-3.285,9.484-4.869,14.236-1.251,3.813-2.5,7.626-3.559,11.479-.763,2.8-.43,3.011,2.386,3.109a18.811,18.811,0,0,0,8.311-1.643,298.076,298.076,0,0,1,32.265-12.124,200.768,200.768,0,0,1,25.128-5.867c3.911-.645,8.252-.45,11.733-2.8,1.134-.743,2.953-1.486,2.366-3.246s-2.268-.841-3.5-.958a7.432,7.432,0,0,0-1.74.1q-9.562,1.291-18.968,3.3a269.349,269.349,0,0,0-39.442,12.085c-.606.235-1.232.743-1.8.235s-.137-1.291,0-1.858C238.658,326.1,240.437,320.8,242.315,315.523Z" transform="translate(-90.798 -229.674)" fill="#fff" stroke="#fff" stroke-miterlimit="10" stroke-width="1"/>
    <path id="패스_444" data-name="패스 444" d="M432.7,321.893a12.183,12.183,0,0,0,5.417-1.74c1.154-.763,2.953-1.467,2.464-3.207s-2.366-1.017-3.618-.958a126.477,126.477,0,0,0-21.119,3.442,255.836,255.836,0,0,0-39.109,12.1c-.548.215-1.134.645-1.623.137s0-1.076.2-1.6c1.955-5.866,3.911-11.87,6.062-17.775.606-1.682,0-2.288-1.564-2.562a5.454,5.454,0,0,0-2.307,0,18.577,18.577,0,0,0-7.822,1.955,5.867,5.867,0,0,0-3.5,3.911c-1.212,3.911-2.581,7.822-3.911,11.733s-2.6,7.822-3.813,11.615c-.88,2.8-.372,3.422,2.5,3.422a23.642,23.642,0,0,0,9.777-2.288,258.118,258.118,0,0,1,28.706-10.951,179.609,179.609,0,0,1,33.262-7.235Z" transform="translate(40.935 -230.643)" fill="#fff" stroke="#fff" stroke-miterlimit="10" stroke-width="1"/>
    <path id="패스_445" data-name="패스 445" d="M334.874,400.714a19.828,19.828,0,0,0-3.051,0c-6.531.782-12.984,1.955-19.4,3.363a283.384,283.384,0,0,0-38.836,11.87c-.724.274-1.525,1.036-2.19.391s0-1.486.254-2.229c1.956-5.495,3.911-10.97,5.749-16.485.88-2.62,0-3.6-2.679-3.4a24.441,24.441,0,0,0-8.858,2.151,5.964,5.964,0,0,0-3.285,3.6c-2.62,7.822-5.26,15.644-7.822,23.466-1.076,3.285-.645,3.813,4.087,3.774a28.218,28.218,0,0,0,9.191-2.757,240.783,240.783,0,0,1,32.324-11.928,164.939,164.939,0,0,1,27.181-5.671,16.406,16.406,0,0,0,8.33-2.933c.743-.587,1.525-1.271,1.095-2.405S335.656,400.733,334.874,400.714Z" transform="translate(-57.832 -150.091)" fill="#fff" stroke="#fff" stroke-miterlimit="10" stroke-width="1"/>
    <path id="패스_446" data-name="패스 446" d="M178.635,348.81a23.056,23.056,0,0,0,13.434-2.092c9.034-4.3,14.49-11.733,17.756-20.865a3.911,3.911,0,0,1,2.483-2.718c6.082-2.444,12.085-5.065,18.127-7.568.645-.254,1.349-1.115,1.955-.548s.137,1.506,0,2.268c-1.388,5.436-2.777,10.872-4.126,16.309-1.662,6.727-3.3,13.434-4.889,20.18-.841,3.461-1.564,6.961-2.307,10.462-.254,1.252,0,2.151,1.584,2.229a20.4,20.4,0,0,0,8.409-1.036c1.7-.665,3.794-1.115,4.322-3.285,1.506-6.081,2.894-12.183,4.38-18.284,1.838-7.489,3.7-15,5.612-22.468s3.911-14.8,5.866-22.175a76.438,76.438,0,0,1,3.07-10.4c.43,2.249,1.779,2.229,3.09,2.327a21.722,21.722,0,0,1,2.835.293c.88.117,1.369.489,1.154,1.6-1.486,7.45-2.738,14.92-4.341,22.332-1.955,8.839-3.344,17.775-4.85,26.673-.528,3.148.156,3.813,3.266,4.439s6-.939,9.034-1.271a21.507,21.507,0,0,0,4.674-.88c1.955-.567,3.911-1.252,5.866-1.956a1.956,1.956,0,0,1,2.347.469,6.473,6.473,0,0,0,7.157,1.956c2.757-.7,5.495-1.447,8.213-2.268a5.867,5.867,0,0,0,2.464-1.31c4.81-1.623,9.621-3.227,14.412-4.869a7.118,7.118,0,0,0,3.3-1.955,3.911,3.911,0,0,0,1.056-4.2,3.539,3.539,0,0,0-3.911-1.819,13.881,13.881,0,0,0-3.187.7c-3.794,1.212-7.47,2.8-11.361,3.715a2.581,2.581,0,0,1-.489.313c-4.067.939-4.087.939-3.266-3.4.156-.841.45-1.682.684-2.5a87.058,87.058,0,0,1,2.112-12.711c1.193-6.512,2.777-12.965,3.911-19.555.352-1.956,1.134-2.307,2.835-2.171a122.923,122.923,0,0,0,12.867.88,11.088,11.088,0,0,0,5.241-1.388c1.349-.782,2.718-1.8,2.229-3.6s-2.171-1.956-3.735-1.956c-8.037,0-15.957-1.486-23.955-2.112-3.676-.293-7.431-1.427-10.97.45a6.746,6.746,0,0,1-4.2.645c-3.246-.391-6.492-.841-9.777-1.134-3.911-.352-8-1.486-11.733,1.212l-2.483,1.956a4.224,4.224,0,0,1,.235-2.894c1.017-3.715,2.092-7.431,3.051-11.166.665-2.62.254-3.129-2.523-3.09a22.642,22.642,0,0,0-5.417.548c-2.679.743-5.749,1.115-6.727,4.478-.391,1.31-.7,2.659-1.056,4.009q-3.266,12.222-6.492,24.482a3.559,3.559,0,0,1-2.327,2.523c-5.866,2.5-11.733,5.084-17.6,7.646-.724.313-1.564,1-2.21.45s0-1.486.117-2.249c1.115-5.71,1.8-11.361-.508-16.993a12.945,12.945,0,0,0-12.554-8.35c-1.232.117-2.483.2-3.7.391a28.159,28.159,0,0,0-16.367,7.568c-11.733,11.987-15.742,26.4-12.926,42.747C169.014,344.352,172.71,347.93,178.635,348.81ZM266.944,332.5a69.52,69.52,0,0,1,1.643-8.272,93.022,93.022,0,0,1,2.171-12.261c.939-5.436,2.171-10.853,3.168-16.289.508-2.816.547-2.972,3.481-2.777,2.405.156,4.791.469,7.2.684,1.036,0,1.564.372,1.31,1.623-1.76,8.487-3.129,17.071-5.143,25.421-.528,2.933-1.056,5.866-1.545,8.78-.137.821-.724,1.036-1.349,1.232l-9.523,3.129C267.081,334.262,266.651,333.577,266.944,332.5Zm-78.062-33.458a16.152,16.152,0,0,1,3.07-3.911,2.327,2.327,0,0,1,3.735.1c3.207,3.168,3.911,7.177,4.067,11.4v.88c.293,7.939-2.464,15.155-5.28,22.351a36.978,36.978,0,0,1-4.83,9.464c-1.955,2.6-3.6,2.523-5.417-.2a14.822,14.822,0,0,1-1.955-7.978,61.421,61.421,0,0,1,6.609-32.109Z" transform="translate(-140.945 -267.818)" fill="#fff" stroke="#fff" stroke-miterlimit="10" stroke-width="1"/>
    <path id="패스_447" data-name="패스 447" d="M271.413,384.653a33.83,33.83,0,0,0-10.872,29.43c1.017,8.663,4.85,12.261,12.437,12.007a26.986,26.986,0,0,0,22.547-13.043,34.553,34.553,0,0,0,5.1-21.334,15.78,15.78,0,0,0-2.972-9.015c-.332-.411-1.154-.7-.841-1.369s1.056-.372,1.6-.372a26.575,26.575,0,0,0,13.414-4.087c.782-.508,1.956-.88,1.545-2.053s-1.467-.743-2.288-.763c-5.651-.156-11.2.88-16.817,1.115-2.288,0-2.268.137-1.779-2.21.88-4.341,1.7-8.721,2.444-13.1a2.738,2.738,0,0,0-2.483-3.442,11.733,11.733,0,0,0-6.277.235c-2.953,1-5.73,2.19-6.355,5.866-.743,4.439-1.74,8.858-2.523,13.3-.215,1.232-.665,1.662-1.956,1.819-5.866.8-11.733,1.623-17.5,2.718a14.646,14.646,0,0,0-8,3.774c-.372.391-1.076.548-.841,1.349s.88.9,1.545.939a29.139,29.139,0,0,0,6.1-.528c4.947-.782,9.934-1.427,15.311-2.17a8.379,8.379,0,0,1-.547.939Zm9.328,3.774c.45-.7.606-1.956,1.623-1.838s1.369,1.212,1.74,2.053a21.314,21.314,0,0,1,1.31,11.576,57.94,57.94,0,0,1-4.674,15.644c-.45,1-.88,2.444-2.386,2.151s-1.74-1.545-1.956-2.659a22.233,22.233,0,0,1-.978-5.866C275.715,401.352,276.79,394.508,280.74,388.427Z" transform="translate(-62.88 -186.495)" fill="#fff" stroke="#fff" stroke-miterlimit="10" stroke-width="1"/>
  </g>
</svg>
