<svg xmlns="http://www.w3.org/2000/svg" width="156.895" height="111.186" viewBox="0 0 156.895 111.186">
  <g id="sticker1" transform="translate(-960.368 -8952.687) rotate(-21)">
    <path id="패스_538" data-name="패스 538" d="M250.431,93.5c-.568-2.222.319-4.824,1.22-7.617.722-2.231,1.453-4.6,2.522-5.519.818-.7,2.722-.933,3.12.249,2.1-.173,3.27.748,3.049,3.1a11.511,11.511,0,0,1-2.159,5.064,19.671,19.671,0,0,1-3.454,3.785c-1.048.788-2.982,1.647-4.306.952Zm2.64-2.312a.441.441,0,0,0,.265-.094c1.554-1.727,3.88-3.976,4.157-6.909a2.462,2.462,0,0,0-.288-1.739c-.789.377-1.009,1.313-2.1,1.393-.794,2.284-1.925,4.714-2.05,7.348Zm-82.6-7.156c-.368-.818.207-1.439.253-2.147a19.007,19.007,0,0,0-4.4,9.96,4.919,4.919,0,0,0,.377,2.588c1.693-.88,2.228-3.36,4.623-3.256.328,1.217-.91,2.487-1.673,3.322-.982,1.074-4.03,3.7-5.53,1.564a6.286,6.286,0,0,1-.472-3.212A20.526,20.526,0,0,1,166,85.412c1.178-2.358,2.565-4.882,4.157-5.667,1.39-.685,3.136-.25,3.4.867a2.85,2.85,0,0,1-3.1,3.42Zm96.409-7.254c.509,1.513.117,3.662.23,5.773.081,1.56.311,3.093.4,4.487,1.267-1.992,2.526-5.17,4.157-7.45.694-.979,1.785-2.467,3.374-1.582-2.476,4.594-5.132,9.012-5.926,15.262-.676.357-1.87,1.2-2.74.938-.956-.282-1.413-3.643-1.6-4.94q-.409-2.918-.6-5.861c-1.241,2.418-1.221,6.077-2.13,8.818a2.819,2.819,0,0,1-2.832.94c-.038-.168-.2-.237-.188-.457.2-3.487,2.147-9.073,3.658-12.313.693-1.49,1.49-4.729,4.185-3.609ZM187.153,91.586c-2.5.866-5.354,3.116-8.924,2.306a1.792,1.792,0,0,1,1.416-1.439c.6-.152,1.191.165,1.789.163a5.661,5.661,0,0,0,4.184-2.09c-1.071-1.8-4.145-1.554-5.3-3.264-1.163,2.067-2.332,6.275-4.5,7.545a2.975,2.975,0,0,1-2.591.111c-.737-2.625-.168-6.01.645-9.034.622-2.309,1.393-5.936,3.984-4.77a3.225,3.225,0,0,1,3.67.328c.265,1.048-.227,1.908-.334,2.864,1.508-.993,3.61-3.754,5.773-4.606a2.636,2.636,0,0,1,2.418.248c-.049,1.041-.864.735-1.779,1a9.536,9.536,0,0,0-2.755,2.078c-.841.829-1.934,1.964-1.762,3.054.276,1.785,4.479,1.888,5.481,3.353.921-1.421,1.838-3.125,3-4.672,1.094-1.462,2.234-3.212,3.632-4.053a2.506,2.506,0,0,1,2.5-.207c.219,2.464-1.055,4.226-1.2,6.621,1.416-1.756,3.3-4.111,5.043-6.03,1.04-1.148,2.176-2.75,4.191-1.554-.138,2.74-1.416,4.8-2.181,7.081a38.26,38.26,0,0,0-1.727,7.521c-.606.507-2.119,1.051-2.856.38.319-4.061,1.619-7.157,2.687-10.478-.767.365-1.105,1.255-1.595,1.977-.948,1.4-1.744,3-2.645,4.67-.877,1.627-1.292,3.443-3.907,3.247-.959-3.074.311-6.7.725-9.568-2.322,2.677-3.535,6.448-5.193,9.787-.6.415-1.754,1.031-2.677.557a4.665,4.665,0,0,1,.778-3.132Zm-11.272-.8c1.366-2.529,3.263-5,3.235-8.608-1.416.261-1.607,1.727-2.481,2.524-.19,2.2-.813,3.984-.933,6.264.108-.012.211-.035.177-.184ZM278.806,78.241A10.046,10.046,0,0,1,277.636,81c-1.174,2.735-2.184,5.619-3.232,8.55a16.4,16.4,0,0,0,2.556-1.4c1.132-.679,2.974-1.729,3.661-.305-1.267.838-2.671,1.62-4.108,2.6-1.324.9-2.7,2.193-4.2,2.51-3.336.7-1.048-3.51-.5-4.763a98.757,98.757,0,0,1,4.778-9.753c.671-.168,1.647-.717,2.2-.2Zm5.31-.593a2.758,2.758,0,0,1,2.472-.386c.421,1.3-.253,2.591-.61,3.763-1.082,3.615-2.211,7.187-3.489,10.66-.725.169-1.819.714-2.56.3-.5-1.246.48-2.806.976-4.134,1.169-3.139,2.329-6.926,3.215-10.2Zm7.536,2.6c-.219,2.151-.794,4.43-.5,6.786a10.128,10.128,0,0,0,1.439-2.671c1.37-2.66,3.259-5.386,4.884-7.919.553-.3,2.984-.672,3.207.249.1.421-.818,1.333-1.174,1.75a35.616,35.616,0,0,0-7.306,14.724c-1,.071-1.961.746-2.928.3-.907-1.635-.965-4.134-1.151-6.5-1.11,1.211-.631,4.313-1.788,5.6a3.585,3.585,0,0,1-2.1.843,1.3,1.3,0,0,1-.294-2.471,43.214,43.214,0,0,1,3.226-8.647c.91-1.635,1.961-3.42,4.473-2.061Zm-83.233-.094c3.523.236,5.214-2.777,8.831-2.127-.188,1.554-2.09,1.612-3.287,2.084-1.321.53-2.564,1.174-3.65,1.727a18.425,18.425,0,0,0-1.138,3.143,13.661,13.661,0,0,0,2.226-1c.8-.357,1.637-.472,2.5-.818a30.033,30.033,0,0,0,2.759-1.72,22.66,22.66,0,0,1,2.847-1.632c.187-.467.237-1.067.613-1.347.645-.288,1.347.028,1.962-.017,2.222-.163,4.624-2.211,6.609-.679-.573,1.01-1.987.812-3.12,1.1s-2.183.834-3.12,1.1c-1.1,3.521-2.36,6.77-3.673,10.133a15.242,15.242,0,0,0-1.3,4.571,2.957,2.957,0,0,1-2.768.737c.794-4.951,2.875-8.64,4.094-13.172-1.529.122-2.847,3.244-4.636,1.734-2.644,2.069-6.808,2.643-7.005,7.116a67.323,67.323,0,0,0,6.234-3.178c.685-.34,1.865-.783,2.142-.2.311.645-1.515,1.543-2.219,1.985-2.1,1.316-3.323,2.03-5.515,3.174-1.034.541-3.575,2.464-4.022.391a6.394,6.394,0,0,1,.169-1.789,32.547,32.547,0,0,1,1.485-4.3c1.005-2.519,1.9-4.73,2.982-7Z" transform="translate(-2493.397 8717.533)"/>
    <path id="패스_539" data-name="패스 539" d="M291.138,76.856c-.829.813-2.245.883-3.378,1.493-.5.265-1.025.645-1.551.928a6.511,6.511,0,0,0-1.554.841c-.579.656-.51,1.63-.987,2.481,1.785-.314,4.349-2.906,6.586-1.336-.3.771-1.285.963-2,1.3a33.606,33.606,0,0,0-4.289,2.326,5.6,5.6,0,0,0-2.9,4.24,37.033,37.033,0,0,0,5.757-2.245c.79-.391,3.218-1.216,2.66.527-.19.593-1.566.942-2.464,1.393-1.564.79-3.462,1.7-5.2,2.426-1.458.6-3.313,1.877-4.759.679a59.275,59.275,0,0,1,4.042-10.121c-.216-1,.629-1.508.9-2.3a27.546,27.546,0,0,1,4.2-2.142c1.354-.541,3.42-1.5,4.947-.5Z" transform="translate(-2476.223 8717.579)"/>
    <path id="패스_540" data-name="패스 540" d="M217.158,79.641c.569-.706,2.218-.5,2.771.067-.875,3.187-2.268,6.328-3.32,9.591-.484,1.508-1.08,2.832-.771,4.387-1.082.674-3.2,1.368-2.955-.78.23-2,1.267-4.442,2-6.811s1.888-4.577,2.28-6.455Z" transform="translate(-2485.942 8718)" stroke="#000" stroke-width="0.469"/>
    <path id="패스_541" data-name="패스 541" d="M224.007,83a21.291,21.291,0,0,0-3.693,7.718c1.7.037,3.708-3.622,5.6-3.8.4-.038,1.174.184,1.255.616.173,1.025-1.5,1.227-1.773,2.07a2.593,2.593,0,0,1,2.234.161c1.854-.625,4.447-.53,5.435-2.01-1.186-2.142-6.244-1.125-6.291-4.15-.016-.928,1.05-2.19,1.765-2.786a21.885,21.885,0,0,1,5.693-3.443,2.331,2.331,0,0,1,2.418.518c-.228,1.043-1.048.592-1.871.73-1.174.2-3.765,2.167-4.624,3.256-1.719,2.183.883,2.9,2.8,3.642,1,.391,3.044,1.232,3.056,2.211.014,1.225-2.93,2.188-4,2.533a29.715,29.715,0,0,1-5.267,1.3c-.652.075-1.65.081-1.969-.253a2.6,2.6,0,0,1,.349-1.343c-1.789.8-2.971,3.026-5.515,3.351-2.842.366-2.406-2.807-1.647-4.723a46.519,46.519,0,0,1,2.906-5.209c.737-1.267,2.406-3.961,3.539-4.583,1.732-.956,3.189-.046,2.429,2.038-.451,1.255-1.094,2.5-2.841,2.165Z" transform="translate(-2485.257 8717.708)"/>
    <path id="패스_542" data-name="패스 542" d="M172.073,50.536c-1.177-.214-2.579,1.67-4.174,1.013.012-3.366,3.846-4.1,5.676-6.093a11.242,11.242,0,0,1,.263-2.806c1.354-1.455,3-.269,4.648-.334,1.764-.073,3.685-1.451,5.7-2.119,3.13-1.042,6.494-2.383,9.62-.5-1.186,2.167-5.757,2.39-8.555,3.18a65.639,65.639,0,0,0-6.206,2.433c-.622,2.7-1.52,5.11-2.257,7.7,2.913-.791,5.089-3.638,8.751-4,.587-.058,1.336.154,1.992.069,4.622-.61,10.555-5.25,16.281-1.586-1.474,3.166-5.131,5.527-8.394,8.152-1.992,1.612-4.548,3.466-7.139,5.216-.656.449-2.36,1.29-2.372,1.577-.051,1.2,4.767,2.188,5.872,2.522,2.426.737,4.115,1.462,6.051,2.2,2.211-5.343,4.372-10.754,6.2-16.5.6-.05.9-.408,1.666-.276,3.425-2.268,7.843-5.611,12.956-6,.774-.058,2.614-.207,3.124.606-.311.822-1.531.777-2.183.915a17.985,17.985,0,0,0-7.226,3.063c-1.485,1.117-2.073,2.994-3.934,3.5-.383,2.045-1.244,3.581-1.681,5.569,2.769-1.317,5.849-2.1,8.914-4,2.041-1.267,3.321-3.489,5.3-4.781a25.543,25.543,0,0,1,8.075-3.693c1.26-.258,2.971.067,3.592,1.286-.242,1.42-1.549.857-2.518,1.071a17.89,17.89,0,0,0-7.085,3.727c-1.548,1.37-3.735,3.773-2.2,6.215,1.9,3.028,9.736,3.069,12.89,5.416.222-1.074,1.14-1.4,1.727-2.09C237,55.315,238.6,49.486,241.16,44.68c1.2-.6,3.224-.161,4.293.313-1.234,4.567-2.7,8.884-4.1,13.269,1.647-.017,3.538-1.226,5.354-1.635,1.992-5.694,3.972-11.411,6.218-16.836,1.119-.144,3.286-.3,4.126.311-.913,5.308-2.881,9.488-4.145,14.427.8.449,1.842-.153,2.98.1.979-.723,1.009-2.467,1.619-3.587-.95-2.694,1.393-4.007,2.349-5.711,5.653-2.406,11.233-7.434,19.24-5.621-1.078,1-2.584,1-3.857,1.355A31.883,31.883,0,0,0,264.944,46.5c-.661,2.092-1.861,3.61-2.357,5.879,2.99-.484,4.692-2.591,7.71-2.713a18.984,18.984,0,0,0,2.476.251c.915-.14,2.2-1.321,3.379-2.035,3.351-2.029,10.2-6.506,13.688-3.166-4.813,2.008-11.14,3.53-14.174,7.622-2.942,3.972,1.828,5.492,5.9,6.663,2.191.633,7.169,1.773,7.491,3.577.307,1.71-2.9,2.291-5.237,2.959-4.306,1.232-8.712,2.562-13.368,3.508-2.959.6-5.676,1.316-8.8.852-.184-.418-1.009-.236-.794-1.021-2.243,1.5-7.146,3.687-10.156,1.635a15.441,15.441,0,0,1,1.727-6.9c.025-.718-1.008-.449-.952-1.193.5-3.067,3.469-3.485,4.033-6.483a9.686,9.686,0,0,0-3.69,1.362c-1.911,5.556-3.869,11.058-5.394,17.03-1.483.094-3.252,1.032-4.64.173.291-5.469,2.782-10.052,4.161-14.922a19.927,19.927,0,0,0-5.887,2.607c-.476,3.005-2.236,5.377-1.462,8.724-1.37.794-3.892,1.884-5.826.956-.292-1.52.412-3.284.662-4.778-5.135,1.126-9.967,2.66-15.694,3.762-1.416.272-4.56,1.253-4.785-.5-.281-2.138,2.806-2.012,4.873-2.153,4.134-.276,8.583-1.957,11.7-3.067-3.788-3.615-12.746-2.406-14.8-7.634a39.893,39.893,0,0,0-9.976,5.941c-.242,2.027-1.459,3.01-1.508,5.244,1.716-.61,3.343-1.938,5.237-2.961,2.47-1.336,4.773-3.374,7.853-2.044a39.71,39.71,0,0,1-7.487,5.865c-2.809,1.8-5.377,4.18-7.8,5.354-2.733,1.329-5.941.523-4.356-3.3-2.446-3.209-7.369-4.111-12.07-5.219-1.458,2.32-1.741,5.907-2.782,8.677-1.3.5-3.641,1.209-4.465-.161.493-4.387,2.144-7.536,2.729-11.825a37.854,37.854,0,0,0,4.184-10.782c-3.489,1.351-6.683,4.5-9.68,6.943-.6,1.906-1.462,4.191-2.383,6.54-1.105,2.821-2.955,6.377-1.12,8.405-.522,1.727-2.875,2.218-5.026,1.647-2.228-2.641.265-6.9,1.006-9.9-.921-.242-2.206,1.329-3.662.535-.806-2.763,4.79-5.029,6.04-7.077a18.227,18.227,0,0,0,1.474-4.253c.438-1.434.593-2.85,1.151-4.6Zm25.9-1.911c-3.12-.507-5.568,1.09-7.853,2.044a36.061,36.061,0,0,1-2.4,7.035c3.661-2.77,7.691-5.147,10.259-9.08Zm71.478,10.932a2.517,2.517,0,0,1,2.119,1.071c-2.05,2.717-5.838,3.569-7.991,6.183a11.391,11.391,0,0,1,3.282.781c2.74-.664,5.757-1.467,8.687-2.181,2.89-.7,6.134-.91,7.887-3.04-4.518-2.365-17.436-2.766-13.23-9.9-3.231,1.693-8.167,3.161-10.308,5.933-1.7,2.211-2,5.32-3.431,8.16,3.374-.891,8.622-7.12,13-7Z" transform="translate(-2493.443 8711.877)" stroke="#000" stroke-width="0.457"/>
    <path id="패스_543" data-name="패스 543" d="M282.387,42.884c5.872,1.14,12.364-3.035,17.884-.04-1.992,1.462-5.757,1.209-9,1.831-1.7.322-3.965.633-4.683,1.324-.829.806-1.877,3.869-2.5,5.377-2.671,6.441-5.172,13.43-7.473,19.77-1.534.34-3.641,1.059-4.974.161,2.153-8.445,5.478-15.631,8.267-23.39-2.28.771-4.214,1.292-5.886,2.609-1.624,1.278-3.1,3.462-6.547,2.586.115-5.166,9.819-6.639,13.705-8.468.472-.522.652-1.359,1.221-1.777Z" transform="translate(-2477.673 8712.329)" stroke="#000" stroke-width="0.457"/>
  </g>
</svg>
