<svg xmlns="http://www.w3.org/2000/svg" width="125.607" height="83.108" viewBox="0 0 125.607 83.108">
  <g id="sticker2" transform="matrix(0.966, 0.259, -0.259, 0.966, 4126.226, -7957.755)">
    <path id="패스_530" data-name="패스 530" d="M613.73,82.694a32.723,32.723,0,0,1-.057,6.51,60.478,60.478,0,0,0,3.762-6.217c.56-1.048,1.14-3.1,3.133-2.235.06.644-.446,1.19-.755,1.72-1.844,3.156-4.225,6.27-5.355,10.19-.4,1.38-.55,3-2.544,2.5-.724-1.052-.508-2.908-.4-4.717a51.525,51.525,0,0,0-.093-6.243,2.486,2.486,0,0,1,.15-1.06c.354-.56,1.41-.5,2.152-.453Zm5.62,1.77c1.8-.3,2.937-1.93,4.766-2.29a3.442,3.442,0,0,1,2.3.214c-.222.617-.977.422-1.487.587a7.8,7.8,0,0,0-3.733,2.83c-.295.53-.333,1.16-.61,1.787,1.487-.23,3.246-2.937,5.427-1.555-.16.7-1.058.858-1.643,1.184-2.17,1.22-5.135,2.44-5.607,5.21a24.148,24.148,0,0,0,2.832-1.57c.846-.51,1.827-1.552,2.757-1.64.54-.05,1.13.25,1.18.54.07.5-1.21,1.15-1.8,1.518-1.32.813-2.718,1.63-4.174,2.36-.863.433-2.783,1.47-3.637.506.69-2.894,2.24-5.51,2.967-8.347.125-.48.006-.964.458-1.325Z" transform="translate(-2493.443 8711.877)"/>
    <path id="패스_531" data-name="패스 531" d="M626.2,89.227c.028-.287-.41-.166-.366-.467.068-.665.77-.9,1.125-1.454a20.22,20.22,0,0,0,1.15-3.312c.65-1.748,1.2-3.775,3.88-2.695a1.475,1.475,0,0,1,.135,1.52,12.284,12.284,0,0,1-1.34.322,9.372,9.372,0,0,0-.91,2.32c1.93-.606,3.76-1.958,6.24-1.617a23.631,23.631,0,0,1,2.915-2.436c1.34-.9,2.95-1.97,5.2-1.557-.54.6-1.407.635-2.086.984a11.17,11.17,0,0,0-3.21,2.566c-.165,1.054-.745,1.73-.914,2.78,1.25-.375,2.53-1.6,4.02-1.763,1.8-1.264,3.9-3.25,6.484-3.87a3.967,3.967,0,0,1,3.036.288c-.217.84-1.247.24-1.93.317-.757.083-1.1.68-1.64.92.115.225.614.113.663.4-1.243,3.735-2.788,7.193-3.588,11.33a4.915,4.915,0,0,1-2.228.316c.365-3.86,2.113-7.048,2.984-10.674a6.581,6.581,0,0,0-2.243,2.11,5.509,5.509,0,0,1-1.705.12c-1.64.92-3.26,1.85-4.77,2.884-.28.95-.635,1.833-.914,2.783,1.2-.35,3.205-2.57,4.7-2.957a1.131,1.131,0,0,1,1.33.41,20.842,20.842,0,0,1-3.36,2.7,10.582,10.582,0,0,1-3.8,2.3,2.074,2.074,0,0,1-1.778-.278,17.327,17.327,0,0,1,.914-3.05c-.167-.115-.53-.06-.59-.268-.13-.984,1.04-1.307,1.423-1.98.41-.73.294-1.6.764-2.455.067-.3-.17-.334-.215-.533a4.4,4.4,0,0,1,.38-.928c-.47-.122-.947.288-1.41.39-1.3,2.875-2.933,6.025-3.125,9.473a6.923,6.923,0,0,1-2.08.316c-.27-.375-.125-1.244-.06-1.726-.6.317-.963,1.243-1.79,1.58a3.232,3.232,0,0,1-2.893-.02c.084-2.115,1.01-3.46,1.6-5.107Zm4.845-2.82c-1.887.53-2.267,1.622-3,3.364-.37.91-.7,1.95-.91,2.52a44.794,44.794,0,0,0,3.91-5.88ZM611.01,72.082c.694-9.862,5.9-16.63,7.5-25.872,1.532-1.03,5.476-1.32,6.89-.045-1.2,5.785-4.187,11.577-6.07,17.455-.86,2.688-2.138,5.86-1,7.813-.56,1.488-5.96,1.98-7.32.65Zm20.43-24.6c3.19.446,3.886-1.32,5.8-1.99,2.122-.744,4.042-.787,7.313-.947,2.99.9,4.745,2.684,4.366,5.977,2-1.72,2.884-6.137,6.61-6.65,2.157-.3,4.324.808,6.047,1.612,5.233-.01,9.294,1.8,8.892,6.09-.375,4-3.162,7.42-6.13,11.45-2.757,3.74-6.33,7.64-9.82,8.77-2.08.673-6.206,1.192-8.176.653-4.98-1.358-2.12-8.79-1.2-12-3.1,2.347-5.89,9.127-10.88,11.18-3.1,1.277-8.785,1.93-10.346-.682a8.806,8.806,0,0,1-.473-4.2c.6-6.445,3.683-15.785,7.99-19.27Zm-1.08,20.875c6.008-5.222,10.963-11.167,11.86-19.9-2.814,1.173-2.29,5.19-7.713,4.1-2.28,4.55-4.193,10.15-4.148,15.8Zm20.028.02c.047.17.242.233.435.3.046-.12.178-.18.428-.16,4.58-3.91,11.38-10.37,12.54-16.6.37-1.973.07-3.626-1.98-4.34-1.48.757-2.2,2.37-4.93,1.833-2.97,5.763-6.134,11.4-6.483,18.96Z" transform="translate(-2493.443 8711.877)"/>
    <path id="패스_532" data-name="패스 532" d="M654.665,81.66c.693.51.355,1.93.417,2.992,1.842-.54,3.62-2.9,5.957-2.746.6.038.8.333,1.25.606a22.377,22.377,0,0,1,3.19-.375c.79.037,2.33.406,2.44.947.12.618-1.15,1.474-1.728,1.914-2.055,1.573-4.7,3.132-6.418,4.6a21.337,21.337,0,0,0,3.55,1.09,19.427,19.427,0,0,1,2.95,1.62,31.622,31.622,0,0,1,2.437-7.29,6.57,6.57,0,0,0,1.068-2.98c.515-.58,2.38-.39,2.592.29-1.277,3.77-3.62,6.573-3.81,11.33a2.365,2.365,0,0,1-2.15-.014,1.175,1.175,0,0,1-.14-.8c-2.973.51-4.166-2.177-7.323-2.11-.527.57-.5,1.64-.688,2.518-.655.18-2.614.538-2.3-.48a3.693,3.693,0,0,1-2.15.05,13.046,13.046,0,0,1-.923-4.456,8.076,8.076,0,0,0-3.057,2.236c-.208.1-.38-.04-.67.06-.6,1.253-.89,2.8-3.28,2.3a1.946,1.946,0,0,1,0-.464,30.9,30.9,0,0,1,4.6-8.668c1.013-1.194,2.03-2.89,4.17-2.163Zm-2.046,4.833a16.182,16.182,0,0,1-.06-1.992,10.377,10.377,0,0,0-2.33,3.57,15.808,15.808,0,0,0,2.38-1.57Zm4.01-.9c-.36.24-1.45.87-1.57,1.25a2.648,2.648,0,0,0,.06.93,23.307,23.307,0,0,0,.345,2.727,4.032,4.032,0,0,0,.577,2,26.374,26.374,0,0,1,1.98-6.03c.246-.553.816-1.23.387-1.858a7.054,7.054,0,0,0-1.788.984Zm8.84-2.46c-.53-.38-1.23.012-1.78.187a6.727,6.727,0,0,0-1.79.65c-.98.742-1.067,2.31-1.734,3.242,1.916-1.222,3.964-2.327,5.3-4.08ZM697.3,42.6c-.34,1.48-1.78,2.676-2.75,3.984-4.75,6.4-8.974,12.88-14.433,19.128-1.035,1.184-2.21,2.4-3.27,3.64-1.526,1.774-3.02,3.1-3.667,5.313-1.783.2-5.273.52-4.915-.86.676-2.62,4.482-5.533,6.375-7.73,5.374-6.23,9.675-13.093,14.63-20.02,1.68-2.34,2.61-5.28,8.03-3.445ZM683,46.238c.286,2.842-2.294,6.067-4.71,6.854-1.47.478-3.146.17-3.417-1.14-.514-2.485,4.534-6.97,8.126-5.714Zm-4.81,4.542c1.07.212,2.525-1.9,2.112-3.225-1.274.1-3.66,2.922-2.114,3.225ZM689.815,64.4c4.06,1.233-.58,7.4-4.244,7.273a1.792,1.792,0,0,1-1.41-.87c-1.206-2.468,2.548-5.768,5.653-6.4Zm-2.9,5.385a3.335,3.335,0,0,0,1.914-3.253c-2.04.047-3.095,2.16-1.912,3.253Z" transform="translate(-2493.443 8711.877)"/>
    <path id="패스_533" data-name="패스 533" d="M677.908,85.613c1.536-.476,2.482-1.49,4.02-1.964.67-.62.854-1.92,1.8-2.12,2.225-.47,1.876,1.784,1.97,3.53.06,1.14.337,2.168.27,2.924.575-.34.928-1.18,1.35-1.85a38.162,38.162,0,0,1,2.778-3.9c.427-.526.91-1.51,1.72-1.648s1.9.41,1.92.875-.57.534-.9.79a12.226,12.226,0,0,0-1.95,2.38,20.761,20.761,0,0,0-4.08,8.67c-4.09,1.234-2.42-5.2-3.35-7.53-1.278,1.54-1.73,3.83-2.428,5.892a3.181,3.181,0,0,1-2.15.117c-.13.34.113,1.04-.088,1.46a2.8,2.8,0,0,1-1.927-.08,23.946,23.946,0,0,1-.7-4.32c-1.46.545-2.81,1.77-4.32,2.49a9.6,9.6,0,0,1-.687,2.187c-.75.187-2.34.02-2.29-.88.02-.4.308-.544.455-.86.475-1.026.63-2.06,1.063-3.05a24.691,24.691,0,0,1,3.16-5.156c.54-.665,1.675-1.88,2.24-1.974,2.3-.385,2.03,2.26,2.117,4Zm-2.088,1.38a8.792,8.792,0,0,0-.5-2.2,20.181,20.181,0,0,0-2.408,3.97c1.036-.53,1.937-1.185,2.908-1.774Zm2.86,3.54a28.838,28.838,0,0,0,1.445-4.174c-.582.4-1.282.7-1.864,1.11.08,1.08.31,2.01.42,3.054Z" transform="translate(-2493.443 8711.877)"/>
    <path id="패스_534" data-name="패스 534" d="M585.92,85.62l-.012-.156c.028-.083-.1-.14-.16-.163a1.611,1.611,0,0,1-.384-.21A4.881,4.881,0,0,1,584.327,84a18.923,18.923,0,0,1-2.45-4.982,35.226,35.226,0,0,1-1.673-7.773,42.7,42.7,0,0,1,.073-9.19,46.829,46.829,0,0,1,2-9.087,69.03,69.03,0,0,1,2.892-7.173l.25-.556c.51-1.145.99-2.21,1.41-3.185l.33-.8c.13.07.24.14.36.21a22.689,22.689,0,0,1,2.08,1.52,2.453,2.453,0,0,0,.23.185l.06.05q1.037.836,2.03,1.724a43.955,43.955,0,0,1,4.03,4.036,10.86,10.86,0,0,1,1,1.383c.333.52.67,1.05,1,1.6q1.043,1.719,1.94,3.52a29.1,29.1,0,0,1,2.76,8.048,16.049,16.049,0,0,1-.61,8.21,17.746,17.746,0,0,1-3.89,6.074c-.874.93-1.7,1.714-2.437,2.41-.5.464-.93.87-1.286,1.24a4.144,4.144,0,0,0-1.234,1.73l.02.084.13.05.046-.008c.066-.013.094-.048.2-.177a9.438,9.438,0,0,1,1.22-1.287c.314-.29.683-.61,1.094-.96.79-.68,1.773-1.53,2.795-2.555a18.162,18.162,0,0,0,4.222-6.264,16.843,16.843,0,0,0,.823-8.72,29.925,29.925,0,0,0-2.732-8.416q-.893-1.86-1.94-3.64-.487-.83-1-1.645a13.022,13.022,0,0,0-1.09-1.534,44.06,44.06,0,0,0-4.117-4.223q-1.034-.945-2.12-1.83-.122-.094-.24-.193a23.535,23.535,0,0,0-2.24-1.61q-.294-.181-.6-.337a3.42,3.42,0,0,0-.62-.24l-.534-.11-.1.038-.03.027-.07.14c-.334.684-.466,1.015-.594,1.334q-.743,1.794-1.53,3.57l-.23.537a70.051,70.051,0,0,0-2.864,7.36,47.2,47.2,0,0,0-1.917,9.344,42.767,42.767,0,0,0,.092,9.416,35.057,35.057,0,0,0,1.9,7.923,18.4,18.4,0,0,0,2.732,5.067,4.855,4.855,0,0,0,1.23,1.12,1.1,1.1,0,0,0,.64.2l.15-.028Z" transform="translate(-2493.443 8711.877)" fill="#1e1d1b"/>
    <path id="패스_535" data-name="패스 535" d="M579.265,71.343a35.057,35.057,0,0,0,1.9,7.923,18.39,18.39,0,0,0,2.732,5.068,4.89,4.89,0,0,0,1.23,1.118,1.11,1.11,0,0,0,.643.2l.15-.03-.012-.16c.028-.09-.1-.14-.16-.17a1.612,1.612,0,0,1-.384-.216,4.831,4.831,0,0,1-1.037-1.09A19,19,0,0,1,581.877,79a35.226,35.226,0,0,1-1.673-7.773,42.7,42.7,0,0,1,.073-9.19,46.834,46.834,0,0,1,2-9.087,69.055,69.055,0,0,1,2.892-7.17l.25-.553c.51-1.145.99-2.21,1.41-3.185l.33-.8c.13.07.24.14.36.213a22.692,22.692,0,0,1,2.08,1.52,2.726,2.726,0,0,0,.23.183l.06.05q1.037.837,2.03,1.727a43.952,43.952,0,0,1,4.03,4.036,10.952,10.952,0,0,1,1,1.385c.333.517.67,1.05,1,1.6q1.043,1.719,1.94,3.52a29.092,29.092,0,0,1,2.76,8.046,16.051,16.051,0,0,1-.61,8.21,17.742,17.742,0,0,1-3.89,6.073c-.874.933-1.7,1.716-2.437,2.41-.5.466-.93.87-1.286,1.24a4.156,4.156,0,0,0-1.234,1.73l.02.086.13.05.046-.01c.066-.01.094-.046.2-.175a9.39,9.39,0,0,1,1.22-1.285c.314-.29.683-.61,1.094-.962.79-.68,1.773-1.53,2.795-2.555a18.177,18.177,0,0,0,4.222-6.263,16.843,16.843,0,0,0,.823-8.72,29.931,29.931,0,0,0-2.732-8.417q-.893-1.86-1.94-3.64-.487-.831-1-1.647a13.019,13.019,0,0,0-1.09-1.536,44.06,44.06,0,0,0-4.117-4.223q-1.034-.945-2.12-1.83-.122-.1-.24-.195a23.554,23.554,0,0,0-2.24-1.61q-.294-.181-.6-.337a3.414,3.414,0,0,0-.62-.24l-.534-.11-.1.036-.03.026-.07.14c-.334.684-.466,1.015-.594,1.334q-.743,1.794-1.53,3.57l-.23.538a70.051,70.051,0,0,0-2.864,7.36,47.223,47.223,0,0,0-1.917,9.344" transform="translate(-2493.443 8711.877)" fill="#1e1d1b"/>
    <path id="패스_536" data-name="패스 536" d="M579.424,71.324a42.553,42.553,0,0,1-.09-9.38,47.387,47.387,0,0,1,1.91-9.313,74.466,74.466,0,0,1,3.088-7.87c.5-1.15.97-2.21,1.368-3.174.222-.525.29-.78.753-1.725l.036-.073a.13.13,0,0,1,.01-.033l.04.007.152.03.3.06a3.35,3.35,0,0,1,.586.23c.22.106.41.218.59.326a26.282,26.282,0,0,1,2.45,1.774c.242.195,1.02.825,2.13,1.84a43.262,43.262,0,0,1,4.1,4.205,13.688,13.688,0,0,1,1.078,1.52c.33.53.668,1.075,1,1.643q1.041,1.773,1.936,3.626a30.291,30.291,0,0,1,2.72,8.372,16.732,16.732,0,0,1-.814,8.635,18.232,18.232,0,0,1-4.19,6.21c-1.542,1.55-2.962,2.66-3.882,3.512a10.931,10.931,0,0,0-1.34,1.427,4.418,4.418,0,0,1,1.19-1.59c.873-.91,2.25-2.08,3.72-3.65a18.132,18.132,0,0,0,3.92-6.13,16.144,16.144,0,0,0,.62-8.293,29.7,29.7,0,0,0-2.772-8.1q-.9-1.8-1.945-3.53c-.33-.554-.67-1.088-1-1.605a11.609,11.609,0,0,0-1.023-1.4,43.974,43.974,0,0,0-4.045-4.052c-1.1-.98-1.865-1.59-2.1-1.783a26.081,26.081,0,0,0-2.32-1.714q-.243-.154-.5-.285c-.018-.01-.016-.01-.024-.01.073-.18-.218.52-.4.96-.416.97-.9,2.04-1.41,3.18a74.943,74.943,0,0,0-3.15,7.74,47.538,47.538,0,0,0-2,9.12,42.568,42.568,0,0,0-.077,9.226,35.483,35.483,0,0,0,1.682,7.81A19.152,19.152,0,0,0,584.2,84.1a5.091,5.091,0,0,0,1.067,1.124,4.268,4.268,0,0,0,.48.27.861.861,0,0,1-.54-.175,4.654,4.654,0,0,1-1.185-1.08,18.135,18.135,0,0,1-2.706-5.02,34.66,34.66,0,0,1-1.893-7.89Z" transform="translate(-2493.443 8711.877)" fill="#1e1d1b"/>
    <path id="패스_537" data-name="패스 537" d="M584.692,64.47a6.021,6.021,0,0,1,2.443.686,6.508,6.508,0,0,1,1.87,1.85c.423.6.68,1.048.724,1.123a15.247,15.247,0,0,1,1.32,3.38,13.992,13.992,0,0,1,.46,2.93c.32-2.52.51-4.29.54-4.61.032-.35.273-2.2.44-4.79.03-.52.057-1.08.076-1.653a6.11,6.11,0,0,1-.2-.886,13.368,13.368,0,0,0-.6-1.93,17.5,17.5,0,0,0-1.413-2.812,10.263,10.263,0,0,0-2.126-2.59,16,16,0,0,0-2.7-1.674,6.45,6.45,0,0,1,2.98,1.32,9.846,9.846,0,0,1,2.4,2.61,14.816,14.816,0,0,1,1.3,3,10.6,10.6,0,0,1,.4,1.882,42.511,42.511,0,0,0-.366-6.44,32.771,32.771,0,0,0-2.383-8.583c-.97-2.223-1.83-3.6-1.75-3.643a15.744,15.744,0,0,1,2.14,3.46,30.686,30.686,0,0,1,2.77,8.648,42.62,42.62,0,0,1,.554,7.212l.2-.422a12.532,12.532,0,0,1,1.16-1.95,7.915,7.915,0,0,1,1.847-1.653,4.634,4.634,0,0,1,1.474-.6c.424-.086.71-.07.714-.03a9.188,9.188,0,0,0-1.93,1.01,8.674,8.674,0,0,0-1.595,1.674,17.183,17.183,0,0,0-1.267,1.773c-.224.35-.43.7-.6,1-.01.466-.02.918-.036,1.34-.11,2.636-.325,4.51-.357,4.856-.014.145-.065.584-.15,1.245a7.767,7.767,0,0,1,.49-.73,21.768,21.768,0,0,1,1.69-2.02,5.683,5.683,0,0,1,.766-.646,7.06,7.06,0,0,1,1.72-.845,7.67,7.67,0,0,1,2.594-.5c.025.1-1.244.4-2.43.92a7.209,7.209,0,0,0-1.534.9,5.678,5.678,0,0,0-.657.622c-.086.093-1,.94-1.79,1.848a12.807,12.807,0,0,0-.944,1.19c-.116.854-.268,1.935-.455,3.17-.143.993-.32,2.09-.493,3.245a11.38,11.38,0,0,1,2.09-2.47,9.374,9.374,0,0,1,2.21-1.314,4.44,4.44,0,0,1,2.34-.43,20.332,20.332,0,0,0-2.144.84,10.853,10.853,0,0,0-2,1.4,13.8,13.8,0,0,0-1.667,1.55c-.37.388-.7.8-.944,1.116q-.469,2.991-.844,5.995a66.672,66.672,0,0,0-.546,9.72c.063,2.637.323,4.372.24,4.385a18.953,18.953,0,0,1-.67-4.362,59,59,0,0,1,.192-9.826c.33-3.59.855-7.194,1.216-9.99.005-.055.014-.11.02-.163-.094-.144-.33-1.673-.85-3.16a16.932,16.932,0,0,0-1.44-3.194c-.046-.073-.28-.522-.658-1.107a5.008,5.008,0,0,0-3.863-2.623,5.031,5.031,0,0,1-1.09-.248,3.5,3.5,0,0,1,1.12,0Z" transform="translate(-2493.443 8711.877)" fill="#1e1d1b"/>
  </g>
</svg>
