<svg xmlns="http://www.w3.org/2000/svg" width="70.006" height="70" viewBox="0 0 70.006 70">
  <g id="bathtub_-p" data-name="bathtub -p" transform="translate(1687 766.977)">
    <path id="패스_352" data-name="패스 352" d="M70.006,43.082a6.7,6.7,0,0,0-6.694-6.694H8.226V9.031a4.912,4.912,0,0,1,4.907-4.907h4.5a2.659,2.659,0,0,1,1.988.894l2.057,2.32a9.174,9.174,0,0,0-.188,1.851v2.69a2.05,2.05,0,0,0,.684,3.982H39.136a2.05,2.05,0,0,0,.684-3.982V9.19A9.163,9.163,0,0,0,23.606,3.335L22.687,2.3A6.762,6.762,0,0,0,17.629.023h-4.5A9.018,9.018,0,0,0,4.124,9.031V36.662a2.074,2.074,0,0,0,.014.234,6.692,6.692,0,0,0-.014,12.366v3.706A13.328,13.328,0,0,0,17.437,66.281h1.172v1.691a2.051,2.051,0,0,0,4.1,0V66.281H47.3v1.691a2.051,2.051,0,0,0,4.1,0V66.281h1.172A13.328,13.328,0,0,0,65.882,52.969V49.262a6.7,6.7,0,0,0,4.125-6.18ZM30.653,4.124A5.071,5.071,0,0,1,35.718,9.19v2.571H25.588V9.19a5.071,5.071,0,0,1,5.065-5.065ZM52.569,62.18H17.437a9.221,9.221,0,0,1-9.211-9.211V49.776H61.78v3.193a9.221,9.221,0,0,1-9.211,9.211ZM63.313,45.674H6.694a2.592,2.592,0,1,1,0-5.184H63.313a2.592,2.592,0,0,1,0,5.184Z" transform="translate(-1687 -767)" fill="#e67c8b"/>
  </g>
</svg>
