<svg xmlns="http://www.w3.org/2000/svg" width="70" height="70" viewBox="0 0 70 70">
  <path id="fragrance-p" d="M57.286,0A12.7,12.7,0,0,0,47.022,5.225H34.35V2.058A2.051,2.051,0,0,0,32.3.008H21.313a2.051,2.051,0,0,0-2.051,2.051V5.225H15.894a2.051,2.051,0,0,0,0,4.1h3.368v3.714h-.48a2.051,2.051,0,0,0-2.051,2.051V23.31A26.7,26.7,0,0,0,10.893,69.6a2.051,2.051,0,0,0,1.217.4H41.5a2.051,2.051,0,0,0,1.217-.4A26.7,26.7,0,0,0,36.88,23.31V15.092a2.051,2.051,0,0,0-2.051-2.051h-.48V9.327H45.033A12.713,12.713,0,1,0,57.286,0ZM20.833,22.652v-5.51H32.779v5.51ZM49.511,48.084A22.322,22.322,0,0,1,47,58.443,22.873,22.873,0,0,1,40.812,65.9H12.8a22.872,22.872,0,0,1-6.186-7.456A22.323,22.323,0,0,1,4.1,48.084a22.676,22.676,0,0,1,15.111-21.33H34.4A22.676,22.676,0,0,1,49.511,48.084ZM23.364,13.041V4.109h6.885v8.932H23.364Zm33.923,8.307A8.623,8.623,0,1,1,65.9,12.725,8.628,8.628,0,0,1,57.286,21.348Z" fill="#e67c8b"/>
</svg>
