<svg xmlns="http://www.w3.org/2000/svg" width="70" height="70" viewBox="0 0 70 70">
  <g id="hand-washing" transform="translate(0)">
    <path id="패스_365" data-name="패스 365" d="M409.242,15.149a7.575,7.575,0,1,0-7.575-7.575A7.583,7.583,0,0,0,409.242,15.149Zm0-11.03a3.456,3.456,0,1,1-3.455,3.456A3.46,3.46,0,0,1,409.242,4.119Z" transform="translate(-346.816)" fill="#a0a0a0"/>
    <path id="패스_366" data-name="패스 366" d="M7.575,87.449A7.575,7.575,0,1,0,0,79.874,7.583,7.583,0,0,0,7.575,87.449Zm0-11.03a3.456,3.456,0,1,1-3.456,3.456A3.459,3.459,0,0,1,7.575,76.418Z" transform="translate(0 -62.372)" fill="#a0a0a0"/>
    <path id="패스_367" data-name="패스 367" d="M63.8,132.939a11.335,11.335,0,0,0-14.3-14.28,11.348,11.348,0,0,0-20.219,0,11.335,11.335,0,0,0-14.3,14.28,11.358,11.358,0,0,0-1.9,19.019H2.051a2.048,2.048,0,1,0,0,4.1H17.427A2.051,2.051,0,0,0,19.478,154a7.822,7.822,0,0,1,7.832-7.822H38.844a2.888,2.888,0,1,1,0,5.776H30.607a2.048,2.048,0,1,0,0,4.1h13.18a2.051,2.051,0,0,0,1.45-.6L56.22,144.483a7.27,7.27,0,0,1,8.622-1.242L45.134,162.927H2.051a2.048,2.048,0,1,0,0,4.1H45.983a2.051,2.051,0,0,0,1.45-.6L69.4,144.484a2.047,2.047,0,0,0,.6-1.448,11.427,11.427,0,0,0-2.484-7.109A10.808,10.808,0,0,0,63.8,132.939ZM53.32,141.587l-7.483,7.474a6.985,6.985,0,0,0-6.993-6.976H27.31a11.924,11.924,0,0,0-10.939,7.144,7.233,7.233,0,0,1-3.482-6.193,6.961,6.961,0,0,1,5.352-6.9,2.048,2.048,0,0,0,1.31-3.16,7.131,7.131,0,0,1,9.771-9.758,2.051,2.051,0,0,0,3.164-1.309,7.138,7.138,0,0,1,13.818,0,2.051,2.051,0,0,0,3.164,1.309,7.131,7.131,0,0,1,9.771,9.758,2.048,2.048,0,0,0,1.31,3.16,6.429,6.429,0,0,1,3.926,2.557A11.358,11.358,0,0,0,53.32,141.587Z" transform="translate(0 -97.024)" fill="#a0a0a0"/>
    <path id="패스_368" data-name="패스 368" d="M199.272,241a6.479,6.479,0,0,0-6.472,6.472,2.06,2.06,0,0,0,4.119,0,2.355,2.355,0,0,1,2.353-2.352,2.06,2.06,0,1,0,0-4.119Z" transform="translate(-166.456 -208.07)" fill="#a0a0a0"/>
    <path id="패스_369" data-name="패스 369" d="M291.266,208.867a2.06,2.06,0,0,0,0,4.119,6.805,6.805,0,0,1,4.781,1.981,6.718,6.718,0,0,1,1.981,4.782v0a2.06,2.06,0,1,0,4.119,0,10.81,10.81,0,0,0-3.187-7.694A10.954,10.954,0,0,0,291.266,208.867Z" transform="translate(-249.706 -180.339)" fill="#a0a0a0"/>
  </g>
</svg>
