<svg xmlns="http://www.w3.org/2000/svg" width="66.658" height="71.2" viewBox="0 0 66.658 71.2">
  <path id="makeup_1_-p" data-name="makeup (1)-p" d="M104.246,62.667V56.833a1.19,1.19,0,0,0-1.212-1.167h-1.212v-10.5A1.19,1.19,0,0,0,100.609,44H99.4V34.667a1.141,1.141,0,0,0-.276-.741l-4.988-5.833a1.234,1.234,0,0,0-1.013-.423,1.221,1.221,0,0,0-.949.544l-2.285,3.5a1.135,1.135,0,0,0-.186.621V44H88.487a1.19,1.19,0,0,0-1.212,1.167v5.1a21.071,21.071,0,0,0-32.729-1.527V35.93l2.408-13.9a1.131,1.131,0,0,0,.017-.192A5.957,5.957,0,0,0,50.91,16H46.061A5.957,5.957,0,0,0,40,21.833a1.13,1.13,0,0,0,.017.192l2.408,13.9V82.5A3.574,3.574,0,0,0,46.061,86H50.91A3.756,3.756,0,0,0,53,85.359,6.213,6.213,0,0,0,55.758,86h48.487a1.19,1.19,0,0,0,1.212-1.167v-21A1.19,1.19,0,0,0,104.246,62.667Zm-13.371,0q.036-.582.037-1.167A19.152,19.152,0,0,0,90.59,58h11.231v4.667Zm1.249-30,1.2-1.846,3.644,4.261V44H92.124ZM89.7,46.333h9.7v9.333H90q-.141-.439-.3-.869ZM70.3,44c10.037.011,18.171,7.84,18.183,17.5A16.873,16.873,0,0,1,84.849,72H81.677a14.765,14.765,0,0,0-.308-21.3,16.2,16.2,0,0,0-22.13,0A14.765,14.765,0,0,0,58.932,72H55.761a16.873,16.873,0,0,1-3.639-10.5C52.133,51.84,60.267,44.011,70.3,44ZM65.456,74.333h9.7v2.333h-9.7ZM62.638,72a12.577,12.577,0,0,1-5.046-14.369,13.5,13.5,0,0,1,25.427,0A12.577,12.577,0,0,1,77.972,72ZM52.122,51H44.849V37h7.273ZM46.061,18.333H50.91a3.579,3.579,0,0,1,3.635,3.41L52.307,34.667H44.663L42.426,21.744A3.579,3.579,0,0,1,46.061,18.333Zm0,65.333A1.191,1.191,0,0,1,44.849,82.5V53.333h6.678a19.157,19.157,0,0,0,.6,17.5V72H50.91A1.19,1.19,0,0,0,49.7,73.167v7a5.661,5.661,0,0,0,1.215,3.5Zm9.7,0a3.574,3.574,0,0,1-3.637-3.5V74.333h10.91v3.5A1.19,1.19,0,0,0,64.244,79H76.366a1.19,1.19,0,0,0,1.212-1.167v-3.5h10.91v5.833a3.574,3.574,0,0,1-3.637,3.5Zm47.275,0H89.7a5.661,5.661,0,0,0,1.216-3.5v-7A1.19,1.19,0,0,0,89.7,72H87.786a19.488,19.488,0,0,0,2.8-7h12.448Z" transform="translate(-39.4 -15.4)" fill="#e67c8b" stroke="#e67c8b" stroke-width="1.2"/>
</svg>
