<svg xmlns="http://www.w3.org/2000/svg" width="68.801" height="71.004" viewBox="0 0 68.801 71.004">
  <g id="make-up-p" transform="translate(1335.382 -79.497)">
    <g id="그룹_492" data-name="그룹 492" transform="translate(-1343 80)">
      <g id="그룹_491" data-name="그룹 491" transform="translate(8.12 0)">
        <path id="패스_346" data-name="패스 346" d="M72.295,3.633a12.407,12.407,0,0,0-17.48-.045,32.9,32.9,0,0,0-4.8-1.922A35.281,35.281,0,0,0,39.541,0c-7.417,0-13.886,3.117-16.887,8.124a12.615,12.615,0,0,0-.991,2.05c-1.413,1.346-7.792,7.938-7.792,17.285,0,6.226-2.994,9.476-4.779,10.859A2.515,2.515,0,0,0,9.4,42.5c.673.378,1.429.741,2.16,1.092.647.31,1.566.751,2.014,1.038v2.435a2.56,2.56,0,0,1-.189.967l-.339.834a3.528,3.528,0,0,0,.444,3.435v.3a2.979,2.979,0,0,0,1.041,2.265v1.605a6.246,6.246,0,0,0,6.239,6.239h4.037a1.367,1.367,0,0,0,0-2.734H20.771a3.509,3.509,0,0,1-3.5-3.5V54.113a1.367,1.367,0,0,0-.831-1.257l-.059-.025a.249.249,0,0,1-.151-.229V51.83a1.368,1.368,0,0,0-.293-.845l-.241-.307a.788.788,0,0,1-.111-.782l.339-.835a5.281,5.281,0,0,0,.39-2V44.154c0-1.317-1.342-1.961-3.565-3.028-.584-.28-1.184-.568-1.715-.852,2.2-1.795,5.577-5.709,5.577-12.812A21.145,21.145,0,0,1,20.879,15.29a17.363,17.363,0,0,0,2.163,7.368c3.509,6.563,9.619,9.313,14.529,11.523,4.671,2.1,7.315,3.426,7.337,6.178a5.93,5.93,0,0,1-1.381,4.419A3.811,3.811,0,0,1,41.013,45.8a1.343,1.343,0,0,0-1.168.533,1.365,1.365,0,0,0-.193,1.281,19.791,19.791,0,0,0,3.226,5.538A13.16,13.16,0,0,0,53.048,58.3l3.674,10.771a1.367,1.367,0,0,0,2.588-.883L55.691,57.584a28.162,28.162,0,0,0,13.9-16.466,33.159,33.159,0,0,0,.37-18.128A12.4,12.4,0,0,0,72.295,3.633ZM66.989,40.285A25.6,25.6,0,0,1,53.66,55.561a10.308,10.308,0,0,1-8.625-4.089,17.429,17.429,0,0,1-2.125-3.243,6.272,6.272,0,0,0,2.483-1.451c1.514-1.45,2.271-3.617,2.25-6.439-.036-4.639-4.365-6.587-8.948-8.651-4.767-2.146-10.171-4.578-13.24-10.319-1.907-3.567-2.356-6.958-1.339-9.931l.012-.034A9.979,9.979,0,0,1,25,9.532c2.512-4.192,8.091-6.8,14.559-6.8H39.6a32.748,32.748,0,0,1,9.6,1.539C56.177,6.462,61.32,10.537,64.48,16.386A31.26,31.26,0,0,1,66.989,40.285Zm2.156-20.027a34.289,34.289,0,0,0-2.26-5.172,26.875,26.875,0,0,0-9.553-10.1A9.659,9.659,0,1,1,69.146,20.258Z" transform="translate(-8.12 0)" fill="#e67c8b" stroke="#e67c8b" stroke-width="1"/>
      </g>
    </g>
  </g>
</svg>
