<svg xmlns="http://www.w3.org/2000/svg" width="51.139" height="68.032" viewBox="0 0 51.139 68.032">
  <g id="slim-down-p" transform="translate(-63.569 0.001)">
    <path id="패스_351" data-name="패스 351" d="M114.673,44.813c-.21-5.331-2.487-11.423-5.179-15.914-4.461-8.129-4.251-17.814-1.03-26.192a1.993,1.993,0,0,0-3.721-1.428c-3.419,8.894-3.734,19.225.451,27.966-9.011,4.119-24.285,4.1-32.184.154,4.246-8.746,3.98-19.133.525-28.12a1.993,1.993,0,0,0-3.721,1.428c3.216,8.364,3.445,18.038-1.03,26.192A35.758,35.758,0,0,0,63.6,44.812a38.112,38.112,0,0,0,5.771,22.3,1.993,1.993,0,0,0,3.353-2.154A33.527,33.527,0,0,1,68.01,41.8c9.65,1.491,17.285,9.8,19.112,11.944V66a1.993,1.993,0,0,0,3.986,0V53.746c1.828-2.15,9.464-10.479,19.158-11.95a33.528,33.528,0,0,1-4.718,23.167,1.993,1.993,0,0,0,3.353,2.154A38.113,38.113,0,0,0,114.673,44.813ZM89.115,49.978C86,46.579,78.544,39.546,69,37.927A33.327,33.327,0,0,1,71.113,32.9c9.461,4.8,26.355,4.379,35.976-.147a33.4,33.4,0,0,1,2.188,5.164C99.713,39.525,92.238,46.574,89.115,49.978Z" transform="translate(0 0)" fill="#e67c8b"/>
    <ellipse id="타원_326" data-name="타원 326" cx="1.993" cy="1.992" rx="1.993" ry="1.992" transform="translate(87.122 20.065)" fill="#e67c8b"/>
  </g>
</svg>
