<svg xmlns="http://www.w3.org/2000/svg" width="85.149" height="21.998" viewBox="0 0 85.149 21.998">
  <g id="lush_logo" data-name="lush logo" transform="translate(0 0.047)">
    <path id="패스_337" data-name="패스 337" d="M925.84,313.74h6.5v7.326h7.088v-7.3h6.6v21.071h-6.55V326.39H932.39v8.454h-6.55Z" transform="translate(-860.884 -313.348)" fill="#fff"/>
    <path id="패스_338" data-name="패스 338" d="M830.957,313.74h6.531v.848c0,3.983.029,7.97,0,11.948-.034,3.488,2.854,4.186,4.956,3.542,1.453-.446,2.219-1.642,2.224-3.45V313.769H851.2c0,.2.034.431.034.659v12.088a9.123,9.123,0,0,1-1.328,4.908,7.9,7.9,0,0,1-6.066,3.706,19.379,19.379,0,0,1-6.894-.325c-3.45-.833-5.266-3.222-5.848-6.638a10.307,10.307,0,0,1-.165-1.633q0-6.119,0-12.233A1.4,1.4,0,0,1,830.957,313.74Z" transform="translate(-811.95 -313.348)" fill="#fff"/>
    <path id="패스_339" data-name="패스 339" d="M897.846,319.212l-6.056.354c-.068-.179-.141-.325-.184-.484a3.11,3.11,0,0,0-4.244-2.059,1.492,1.492,0,0,0-1.085,1.371,1.25,1.25,0,0,0,1.046,1.279c1.453.407,2.907.727,4.36,1.139a24.058,24.058,0,0,1,2.97,1.008,5.838,5.838,0,0,1,3.919,4.947,6.628,6.628,0,0,1-2.97,6.41,9.644,9.644,0,0,1-5.2,1.555,16.769,16.769,0,0,1-6.221-.64,7.1,7.1,0,0,1-4.695-6.73l6.109-.388c.136.484.228.916.378,1.337a3.663,3.663,0,0,0,5.223,1.807,1.873,1.873,0,0,0-.078-3.391,25.931,25.931,0,0,0-3.246-1.061,40.891,40.891,0,0,1-4.234-1.478,5.3,5.3,0,0,1-3.445-5.281,5.494,5.494,0,0,1,3.837-5.194,17.539,17.539,0,0,1,4.389-.824,12.374,12.374,0,0,1,5.358.669A6.051,6.051,0,0,1,897.846,319.212Z" transform="translate(-836.98 -312.88)" fill="#fff"/>
    <path id="패스_340" data-name="패스 340" d="M791.77,313.68H797.7a4.419,4.419,0,0,1,.577.029v15.862h10.174v5.242H791.77Z" transform="translate(-791.77 -313.317)" fill="#fff"/>
  </g>
</svg>
